<svg version="1.1" id="Layer_1" xmlns="http://www.w3.org/2000/svg" xmlns:xlink="http://www.w3.org/1999/xlink" x="0px" y="0px"
	 width="100%" viewBox="0 0 4000 2667" enable-background="new 0 0 4000 2667" xml:space="preserve">
<path fill="#E0B8BF" opacity="1.000000" stroke="none" 
	d="
M1508.609375,2669.461670 
	C1006.249329,2670.000000 504.498657,2670.000000 2.000000,2670.000000 
	C2.000000,2585.292969 2.000000,2500.583740 2.000000,2414.937256 
	C9.212676,2404.959961 20.352552,2405.577393 30.037878,2402.780518 
	C44.898125,2398.489746 59.303574,2394.764893 72.758217,2385.362793 
	C86.870117,2375.501465 104.643120,2371.169678 122.406509,2369.708252 
	C125.038094,2369.491943 127.867821,2370.047852 130.227066,2368.530518 
	C146.664078,2357.959961 165.494873,2354.005859 183.809158,2348.323486 
	C200.823242,2343.044678 217.671539,2337.020508 234.461914,2330.952393 
	C254.339249,2323.768066 274.522827,2316.478271 295.600311,2312.988770 
	C315.934357,2309.622314 333.480499,2299.206055 351.417480,2290.320068 
	C361.858276,2285.147705 372.917206,2280.423828 383.492889,2277.957520 
	C409.753021,2271.833740 434.327759,2260.515869 460.833344,2255.127197 
	C470.553467,2253.151123 479.654999,2246.265625 490.081573,2243.528320 
	C498.430817,2241.336670 506.618317,2238.443848 515.216858,2237.331543 
	C529.378418,2235.499268 539.993530,2225.082275 553.824036,2221.996582 
	C564.104797,2219.702637 574.216614,2216.088379 584.354919,2212.907471 
	C590.767883,2210.895752 596.805115,2208.792236 602.438965,2204.907471 
	C610.981018,2199.017578 621.892700,2199.442383 631.242188,2194.770020 
	C641.524597,2189.631592 652.682312,2185.480957 664.756897,2186.015869 
	C666.415527,2186.089355 668.128845,2185.649170 669.469055,2184.591064 
	C680.325562,2176.019287 693.836609,2174.930908 706.360901,2170.867188 
	C714.094604,2168.357666 722.157715,2165.662598 729.309143,2161.711182 
	C741.225525,2155.126709 753.602844,2151.031494 767.157166,2150.335938 
	C770.149292,2150.182373 772.965271,2149.661377 775.733154,2148.117432 
	C798.377136,2135.487061 823.640076,2130.794678 848.363708,2124.509766 
	C851.559692,2123.697510 855.438110,2124.328125 857.821960,2121.846680 
	C865.900269,2113.437744 877.250732,2110.662598 886.612854,2104.524414 
	C889.770935,2102.453857 893.052185,2101.026123 896.832947,2100.963135 
	C911.043274,2100.726074 924.338440,2097.454102 936.823853,2090.348877 
	C952.079407,2081.667236 969.658203,2079.912842 986.108276,2074.766846 
	C997.425171,2071.226562 1008.100586,2066.326904 1020.422424,2065.237305 
	C1028.005127,2064.566895 1035.956543,2059.012451 1042.442261,2054.748535 
	C1052.956055,2047.836548 1064.347290,2047.709839 1075.439941,2045.028198 
	C1086.660889,2042.315430 1097.397339,2039.465088 1108.025513,2033.867676 
	C1118.888428,2028.146484 1131.135376,2024.163452 1142.805908,2019.480591 
	C1169.271973,2008.861084 1197.329346,2002.804932 1223.620850,1991.635742 
	C1224.848511,1991.114014 1226.061035,1990.374512 1227.364990,1990.269165 
	C1243.328857,1988.979004 1257.557007,1982.562622 1271.635986,1975.578735 
	C1274.912842,1973.953247 1278.671875,1973.247681 1282.307373,1973.103882 
	C1301.647095,1972.338501 1318.438965,1964.382690 1335.094116,1955.469727 
	C1342.364868,1951.578857 1350.578247,1949.217651 1358.611206,1947.366333 
	C1380.068726,1942.421265 1400.380737,1934.878174 1420.012085,1924.852295 
	C1427.821289,1920.864136 1436.925415,1918.606079 1445.509155,1916.719849 
	C1461.465210,1913.213257 1475.418945,1903.732666 1492.017944,1902.440186 
	C1504.056030,1901.502930 1514.159546,1894.186646 1525.820557,1891.190674 
	C1537.577148,1888.170044 1549.539062,1884.804688 1561.008545,1880.260376 
	C1578.790894,1873.214478 1596.707397,1866.531738 1614.894043,1860.524170 
	C1624.416138,1857.378540 1633.952881,1854.432251 1643.773315,1852.809204 
	C1651.038818,1851.608398 1657.184814,1849.246704 1661.899658,1843.487061 
	C1664.258179,1840.605713 1667.140015,1837.379028 1670.936157,1837.911255 
	C1684.450195,1839.805542 1694.362915,1829.538940 1706.192505,1827.688477 
	C1729.014160,1824.118530 1747.151245,1808.535767 1770.716553,1806.119263 
	C1786.333496,1804.517944 1801.842041,1797.033691 1817.270630,1792.408813 
	C1833.456665,1787.556763 1847.070435,1777.271973 1863.945190,1774.387207 
	C1895.931641,1768.919189 1925.035400,1754.647827 1955.060669,1743.104126 
	C1966.809082,1738.587280 1977.825684,1732.178711 1991.481079,1731.169434 
	C2001.674438,1730.416260 2011.184692,1722.418823 2021.971436,1719.836914 
	C2033.478149,1717.082642 2043.841064,1711.068970 2056.493408,1710.999512 
	C2063.770264,1710.959595 2071.310791,1705.798706 2078.375732,1702.122925 
	C2079.554443,1701.509644 2077.977783,1701.832764 2079.191406,1701.595459 
	C2096.405518,1698.231689 2110.648926,1685.910889 2128.761230,1685.242188 
	C2135.150391,1685.006348 2140.793701,1683.199585 2146.329102,1679.304321 
	C2155.126465,1673.113525 2166.100830,1671.356323 2176.313721,1669.198120 
	C2189.200195,1666.474854 2200.446533,1659.898804 2212.978271,1656.437866 
	C2229.155273,1651.970581 2244.671631,1645.202637 2260.791992,1640.401489 
	C2266.079834,1638.826782 2270.943115,1637.183105 2274.096436,1631.282959 
	C2277.179199,1627.881958 2280.541992,1626.409668 2284.089844,1625.458984 
	C2305.626465,1619.686646 2326.659668,1612.331055 2347.812256,1605.347900 
	C2351.295410,1604.197876 2354.835449,1603.225708 2359.315674,1604.405396 
	C2364.791992,1609.492676 2369.526855,1610.447754 2374.521240,1604.945068 
	C2375.854248,1603.476440 2377.712402,1602.309692 2379.709473,1602.090088 
	C2404.322021,1599.384277 2425.772949,1585.803101 2449.975342,1581.709961 
	C2451.289551,1581.487671 2452.599854,1580.973267 2453.646484,1580.179321 
	C2476.430420,1562.894165 2505.175049,1561.018799 2530.614014,1550.580322 
	C2535.335205,1548.643066 2539.123779,1545.482544 2543.697998,1543.528809 
	C2557.188721,1537.766724 2571.190186,1534.341553 2585.844238,1533.226807 
	C2596.990479,1532.379028 2608.062744,1528.232056 2616.734619,1522.631104 
	C2632.795898,1512.257324 2650.578613,1509.336304 2668.191406,1504.960938 
	C2684.950439,1500.797607 2701.082764,1494.572510 2716.407959,1487.116699 
	C2727.447754,1481.745728 2738.756592,1475.676636 2750.175781,1473.539917 
	C2761.443115,1471.431396 2771.039062,1463.304565 2783.249023,1465.208374 
	C2787.188477,1465.822510 2790.565918,1462.349365 2794.043945,1460.444336 
	C2806.066162,1453.858765 2819.132568,1450.884033 2832.210938,1447.149414 
	C2843.476318,1443.932495 2855.680664,1444.562134 2866.305908,1438.586548 
	C2876.674072,1432.755737 2888.692139,1429.759644 2898.997070,1424.777954 
	C2911.656250,1418.658081 2925.423340,1418.945557 2937.187500,1413.373535 
	C2956.790527,1404.088623 2978.312012,1400.824829 2997.897217,1391.248047 
	C3007.715332,1386.447266 3019.842041,1383.780518 3030.001953,1379.468262 
	C3047.850830,1371.892456 3066.389160,1367.191162 3084.620850,1361.381592 
	C3099.461426,1356.652710 3113.882324,1350.908813 3128.545898,1345.913696 
	C3144.474121,1340.487793 3161.538818,1338.339600 3177.264893,1331.795288 
	C3193.800537,1324.914185 3210.350586,1318.151489 3227.776123,1313.686035 
	C3232.264404,1312.535889 3236.597168,1310.747925 3241.272705,1310.283813 
	C3245.323975,1309.881836 3249.387207,1308.946167 3252.461670,1306.360352 
	C3269.703125,1291.859863 3290.929199,1288.245972 3312.019775,1284.351807 
	C3316.114258,1283.595825 3319.843750,1282.390747 3322.884277,1279.757080 
	C3333.708740,1270.380859 3346.965088,1267.797974 3360.458984,1265.020142 
	C3378.542725,1261.297241 3396.288330,1256.953613 3413.380127,1248.790649 
	C3429.580078,1241.053711 3447.413330,1236.230469 3465.290039,1232.715332 
	C3475.485352,1230.710815 3484.685547,1225.925537 3494.355957,1222.671143 
	C3515.584717,1215.526855 3534.466309,1203.105591 3557.059082,1198.409790 
	C3569.880371,1195.744873 3584.580811,1194.937622 3595.986572,1185.802734 
	C3600.703857,1182.024780 3606.785889,1180.232056 3612.767090,1179.804565 
	C3626.001221,1178.858643 3637.554688,1171.946167 3650.307617,1168.979492 
	C3660.942139,1166.505615 3672.923584,1162.209106 3683.129883,1156.230469 
	C3688.751953,1152.937378 3694.375977,1150.730713 3700.775146,1149.911255 
	C3715.991455,1147.962769 3730.708252,1144.364380 3744.134521,1136.478638 
	C3748.486084,1133.922974 3753.748291,1134.008911 3758.515625,1132.460693 
	C3777.115479,1126.420532 3794.482178,1117.173950 3812.818604,1110.845459 
	C3832.387695,1104.091309 3852.236572,1097.995728 3871.875977,1091.306274 
	C3888.696777,1085.576782 3906.145508,1081.675659 3922.170166,1073.667725 
	C3923.064453,1073.220947 3924.020020,1072.785156 3924.997070,1072.694824 
	C3943.720459,1070.965698 3960.165771,1060.659668 3978.720215,1058.412720 
	C3984.939697,1057.659546 3989.002197,1052.158081 3995.177002,1051.581787 
	C3997.220947,1051.390991 3999.162598,1051.697998 4001.417480,1053.508667 
	C4002.000000,1073.375122 4002.000000,1092.750244 4002.000000,1113.062744 
	C3999.318848,1117.080566 3995.780029,1118.965088 3992.327881,1120.985474 
	C3925.911865,1159.855469 3865.188721,1206.390747 3807.840820,1257.539429 
	C3731.034668,1326.043579 3662.803711,1402.490479 3598.176025,1482.354248 
	C3531.274902,1565.026978 3468.357910,1650.728271 3404.659424,1735.837891 
	C3357.723877,1798.550293 3309.714600,1860.419556 3258.841064,1919.998779 
	C3217.067871,1968.920288 3173.401611,2016.142822 3126.808105,2060.515381 
	C3063.683594,2120.631592 2996.184082,2175.375000 2922.135986,2221.601562 
	C2868.313721,2255.201416 2811.941162,2283.926758 2751.824463,2306.753418 
	C2720.158936,2319.421875 2688.500488,2329.733398 2656.392822,2338.633545 
	C2569.555176,2362.706055 2480.947998,2377.568359 2391.777588,2389.681152 
	C2288.205078,2403.750488 2184.173584,2414.424561 2081.015137,2431.549072 
	C1984.838257,2447.514893 1890.294312,2469.717773 1799.423218,2505.804443 
	C1731.104492,2532.935303 1666.368286,2567.090820 1603.974243,2605.803467 
	C1576.225220,2623.020264 1549.095337,2641.170166 1522.746826,2660.468750 
	C1518.430908,2663.629639 1513.763550,2666.163330 1508.609375,2669.461670 
z"/>
<path fill="#E8D4D8" opacity="1.000000" stroke="none" 
	d="
M4001.281982,115.386536 
	C4002.000000,145.375122 4002.000000,174.750244 4002.000000,205.062683 
	C3995.613770,213.909958 3986.038086,216.680756 3977.400635,220.666046 
	C3928.123779,243.401947 3880.434326,269.234558 3832.565430,294.693451 
	C3767.057373,329.533630 3702.506104,366.106628 3637.864502,404.016907 
	C3524.969971,469.745209 3413.554443,536.542908 3300.439453,600.421143 
	C3219.230713,646.281250 3137.372803,690.945923 3053.543945,731.851624 
	C2943.617432,785.492065 2831.999756,835.183289 2715.510254,873.170288 
	C2714.233887,873.586609 2713.135742,874.370422 2711.167969,875.240601 
	C2626.814453,904.198669 2541.473389,926.293213 2454.687500,942.712341 
	C2399.088623,953.231201 2343.017578,960.943604 2286.616943,965.349548 
	C2252.503662,968.014526 2218.329590,971.408508 2183.989014,969.950500 
	C2168.658203,969.299622 2153.511230,973.091614 2138.156982,971.937622 
	C2095.043945,968.697449 2051.719727,971.003906 2008.612549,966.434998 
	C1990.801392,964.547180 1972.784546,964.193909 1954.135498,961.704468 
	C1839.234619,951.492981 1726.969604,930.762573 1615.599365,904.632874 
	C1508.105347,879.412659 1402.388306,848.039978 1297.878784,812.598145 
	C1217.706543,785.409729 1138.434937,755.730408 1059.682617,724.637817 
	C939.077576,677.020874 819.930176,625.930420 700.722229,574.974792 
	C699.494629,574.450012 698.297302,573.867737 696.406128,572.916138 
	C581.392334,524.779419 467.326538,476.418457 352.232819,430.532562 
	C260.323517,393.889862 167.427582,359.971680 73.635841,328.479980 
	C69.011406,326.927277 63.731133,326.260132 60.890221,320.419128 
	C62.842010,311.881927 69.225853,310.167755 75.610504,310.261993 
	C104.305054,310.685455 132.757278,306.876007 161.354340,305.582916 
	C196.892700,303.975891 232.459732,302.417175 267.997040,300.697937 
	C297.240906,299.283203 326.385406,296.326508 355.694977,295.805115 
	C384.958160,295.284576 414.088226,291.651947 443.417847,291.455933 
	C470.339294,291.275970 497.315521,290.339752 524.098389,287.744202 
	C562.159180,284.055634 600.371338,283.344391 638.486206,280.916290 
	C668.980652,278.973633 699.595398,277.385223 730.244263,277.572571 
	C747.839539,277.680145 765.159485,273.164917 782.885803,273.199738 
	C789.439941,273.212616 796.112061,271.946808 802.782227,271.972931 
	C837.095947,272.107330 871.264709,269.802582 905.409363,266.512421 
	C923.949280,264.725922 942.676880,264.899719 961.260559,264.432434 
	C1010.523804,263.193817 1059.673706,259.991821 1108.865601,257.651886 
	C1138.443726,256.244904 1168.033081,255.088654 1197.596802,253.624664 
	C1239.770874,251.536209 1281.907959,248.253662 1324.103027,246.608368 
	C1342.659912,245.884811 1361.227661,244.640366 1379.891724,244.821991 
	C1393.311279,244.952560 1406.946777,242.406281 1420.557739,241.467957 
	C1433.176758,240.598007 1445.801514,240.527039 1458.388550,240.216721 
	C1478.709229,239.715729 1498.912109,237.014771 1519.142700,236.804733 
	C1538.440308,236.604355 1557.582031,235.392181 1576.799194,234.125259 
	C1622.925659,231.084290 1669.135742,229.600052 1715.283203,226.612869 
	C1751.078369,224.295822 1786.978638,222.693695 1822.885498,221.561539 
	C1861.755249,220.335953 1900.612183,217.602127 1939.494263,215.858658 
	C1980.036987,214.040726 2020.518799,211.142136 2061.087646,209.593216 
	C2089.332275,208.514816 2117.686035,207.831512 2145.795166,205.482986 
	C2187.936035,201.962128 2230.138672,200.292511 2272.324951,198.636826 
	C2302.591553,197.448914 2332.780518,195.187119 2363.021973,193.756836 
	C2404.221680,191.808228 2445.439941,190.170227 2486.629883,187.907410 
	C2514.506104,186.376007 2542.445068,185.410965 2570.303223,183.690735 
	C2602.837646,181.681747 2635.454834,181.513443 2667.947266,178.495804 
	C2686.480713,176.774567 2705.184326,178.184891 2723.801514,176.128143 
	C2756.544434,172.510910 2789.620605,174.571518 2822.426270,170.575287 
	C2837.205566,168.774933 2852.347168,168.241165 2867.243896,168.309357 
	C2893.255615,168.428436 2919.344971,167.582184 2945.054932,165.299820 
	C2984.872559,161.765060 3024.793945,161.587463 3064.609863,158.706818 
	C3092.397461,156.696426 3120.344482,155.489120 3148.298828,155.003510 
	C3172.505859,154.583023 3196.776367,152.621948 3220.984619,150.755814 
	C3235.244385,149.656586 3249.539551,148.928726 3263.817627,148.099457 
	C3312.632080,145.264359 3361.480713,142.864899 3410.331299,140.932556 
	C3445.841553,139.527908 3481.228760,136.163925 3516.804443,135.569885 
	C3534.674072,135.271500 3552.668213,133.999527 3570.588379,132.772202 
	C3589.457520,131.479858 3608.442139,132.212936 3627.337402,130.056503 
	C3660.415039,126.281517 3693.768555,126.631340 3726.968018,124.875961 
	C3761.494385,123.050415 3796.096924,121.492439 3830.641357,119.702118 
	C3875.144775,117.395668 3919.756836,117.094330 3964.167236,112.587326 
	C3976.174805,111.368774 3988.723877,109.456734 4001.281982,115.386536 
z"/>
<path fill="#E4CCCF" opacity="1.000000" stroke="none" 
	d="
M1951.189209,958.576172 
	C1963.142944,959.182861 1974.333252,960.314941 1985.522217,961.458130 
	C1986.843994,961.593140 1988.176392,962.015930 1989.475586,961.920776 
	C2004.810547,960.797241 2020.062012,963.100220 2035.184448,964.421814 
	C2059.811279,966.573975 2084.444336,964.395752 2108.915039,966.363892 
	C2123.874512,967.566956 2138.883545,969.075562 2153.660645,967.689148 
	C2178.263916,965.380737 2202.877441,967.232361 2227.397217,965.742676 
	C2247.237061,964.537231 2267.068848,963.011169 2286.908691,961.677185 
	C2308.343262,960.235962 2329.606689,956.423706 2351.012451,954.339539 
	C2381.724854,951.349182 2411.958252,945.493835 2442.362061,940.535767 
	C2487.961670,933.099854 2532.787598,922.370911 2577.528076,911.141907 
	C2618.813477,900.780090 2659.516846,888.425842 2699.919189,875.056519 
	C2703.379395,873.911438 2706.931396,873.043579 2711.220459,872.023438 
	C2746.897949,871.028564 2781.801758,870.303284 2816.674316,868.487366 
	C2842.314209,867.152161 2867.993896,868.463074 2893.645264,867.902466 
	C2955.217773,866.556702 3016.737061,863.451660 3078.363525,863.517822 
	C3099.257324,863.540283 3120.315918,863.174805 3141.173096,861.680847 
	C3179.802490,858.914001 3218.470703,861.482239 3257.036865,859.602722 
	C3293.942139,857.804138 3330.868164,857.352539 3367.774658,856.001892 
	C3373.780518,855.782104 3379.862061,855.841919 3385.308594,860.936462 
	C3389.804932,868.765015 3383.887695,872.051758 3379.839600,875.500061 
	C3360.822021,891.699097 3341.529541,907.580627 3322.717529,924.016663 
	C3281.341553,960.166321 3239.598389,995.892456 3198.728760,1032.626831 
	C3158.614258,1068.682739 3118.144287,1104.345703 3077.806641,1140.153931 
	C3014.523193,1196.331543 2950.240234,1251.301636 2883.869873,1303.808960 
	C2797.013672,1372.523193 2706.641602,1436.157959 2610.767822,1491.740845 
	C2584.554199,1506.938110 2557.860840,1521.331299 2530.253418,1535.478149 
	C2528.404541,1536.444824 2527.057129,1536.818237 2525.275391,1537.864502 
	C2521.049072,1539.842651 2517.397461,1541.456787 2513.346191,1543.789917 
	C2511.536377,1544.723511 2510.270508,1545.237793 2508.530762,1546.356445 
	C2492.837646,1553.453003 2477.963379,1560.667236 2462.228271,1567.686035 
	C2459.418457,1568.778320 2457.353760,1569.783691 2454.871094,1571.491211 
	C2452.150635,1572.734131 2449.895508,1573.223633 2447.104736,1574.289062 
	C2443.691162,1575.213623 2441.285889,1576.682251 2438.164062,1578.343750 
	C2415.749512,1587.452026 2393.841553,1595.859497 2372.103516,1604.696533 
	C2368.753174,1606.058472 2365.210449,1607.147949 2360.717529,1606.141113 
	C2358.660645,1606.102417 2357.256104,1605.982788 2356.033691,1606.398682 
	C2329.967529,1615.264648 2303.731689,1623.592041 2276.654785,1631.713135 
	C2273.004883,1635.371826 2269.260742,1637.121704 2264.916748,1638.237183 
	C2241.127197,1644.345825 2217.274902,1650.154053 2192.309570,1654.699219 
	C2189.413086,1654.968384 2187.277588,1654.941162 2184.610596,1656.260986 
	C2179.297119,1657.521484 2174.636963,1658.000732 2169.254395,1658.920166 
	C2166.277588,1658.978027 2164.262207,1659.678223 2161.479492,1660.748535 
	C2135.542480,1665.096558 2110.460449,1669.599976 2084.200684,1671.456543 
	C2080.645752,1670.922974 2077.961914,1670.961060 2074.620117,1672.419434 
	C2070.616211,1673.393066 2067.346191,1673.556396 2063.235840,1673.361084 
	C2060.117676,1673.096191 2058.036133,1673.906738 2055.104980,1674.933105 
	C2036.301758,1675.420288 2018.486450,1678.635620 1999.582031,1677.597168 
	C1997.483643,1677.294434 1996.275024,1677.270874 1994.160889,1677.552490 
	C1989.131958,1679.011719 1984.919678,1679.870728 1980.595337,1679.903198 
	C1952.829224,1680.111084 1925.062500,1680.135620 1897.296631,1679.881348 
	C1893.661499,1679.848145 1890.039307,1679.381104 1885.690674,1677.917480 
	C1881.320679,1676.828369 1877.765015,1677.015381 1873.362061,1677.046875 
	C1857.478271,1679.184692 1842.599731,1676.120728 1827.731567,1675.195190 
	C1787.229248,1672.673462 1746.900879,1667.957397 1706.714600,1662.204712 
	C1605.064209,1647.652954 1505.154419,1625.110107 1406.205566,1597.809937 
	C1322.084839,1574.601074 1239.018066,1548.032349 1155.138428,1521.281250 
	C1149.250122,1518.501221 1143.677612,1517.326294 1138.313965,1515.555908 
	C1034.557617,1481.305908 931.310730,1445.538574 827.575317,1411.226196 
	C819.037354,1408.402222 810.311401,1406.176392 801.107300,1402.755127 
	C693.617310,1369.905518 587.151184,1336.449463 478.398468,1311.047241 
	C379.425476,1287.929199 279.688019,1269.126221 178.666565,1257.381226 
	C127.413979,1251.422485 76.106628,1246.308960 24.576416,1243.449707 
	C17.400032,1243.051392 9.865161,1243.086304 2.650639,1238.549072 
	C2.000000,1162.624878 2.000000,1087.249756 2.000000,1010.937317 
	C9.190826,1003.721985 17.838387,1006.393677 25.965385,1006.222351 
	C57.460251,1005.558533 88.864555,1004.498840 120.295425,1001.295898 
	C141.617859,999.123047 163.238022,995.858337 184.950668,999.352600 
	C199.508804,1001.695435 214.175278,999.142822 228.774796,998.772034 
	C253.753433,998.137512 278.601807,1000.652039 303.532013,1000.843811 
	C306.486633,1000.866516 309.517120,1002.193542 312.436401,1001.293579 
	C328.079376,996.471130 344.157867,998.146851 360.092590,998.051514 
	C370.776428,997.987610 381.346649,998.219482 391.440155,993.669556 
	C395.704895,991.747192 400.567780,991.993774 405.247437,991.992371 
	C458.220917,991.976685 511.195251,991.790527 564.167480,992.076233 
	C590.061035,992.216003 615.957214,992.834473 641.834290,993.959534 
	C647.575195,994.209045 652.979492,993.395142 658.125183,990.336853 
	C664.295349,986.669678 671.306519,985.986206 678.403748,985.985657 
	C735.708374,985.981079 793.025696,985.275269 850.311279,986.346252 
	C872.940125,986.769287 895.491699,984.770325 918.082947,985.924072 
	C920.739441,986.059753 923.672058,986.379517 925.988098,985.185059 
	C939.124023,978.410034 953.260864,980.034851 967.172974,980.016418 
	C991.464844,979.984314 1015.824768,980.693604 1040.028687,979.520996 
	C1061.667480,978.472656 1083.282227,977.616821 1104.885254,978.203918 
	C1120.821777,978.636963 1136.714966,978.462463 1152.614502,978.520813 
	C1184.002197,978.635925 1215.014038,974.644714 1246.220337,973.305420 
	C1260.104858,972.709595 1274.113892,973.739014 1288.082642,973.654785 
	C1301.368896,973.574707 1314.592407,973.595581 1327.909180,972.881775 
	C1347.017212,971.857544 1366.377808,971.567200 1385.476562,974.390991 
	C1391.167847,975.232422 1396.603271,975.720398 1402.239746,974.230896 
	C1411.711914,971.727783 1421.235352,972.629639 1430.954102,973.174683 
	C1447.310547,974.092102 1464.185547,977.404541 1479.650757,967.935791 
	C1483.330566,965.682739 1488.029175,965.917236 1492.377808,966.020447 
	C1510.998901,966.462036 1529.635132,964.994812 1548.250244,967.655945 
	C1558.789429,969.162476 1569.505371,967.513428 1580.137451,966.691162 
	C1599.437988,965.198608 1618.693359,967.296570 1637.964722,967.677124 
	C1670.115601,968.312012 1702.245239,964.390381 1734.460205,965.907776 
	C1736.119507,965.985962 1737.826660,965.950989 1739.429688,965.502502 
	C1774.776367,955.613464 1810.632812,959.994873 1846.389160,961.672668 
	C1849.055054,961.797791 1851.846069,962.390259 1854.353882,961.695007 
	C1872.969727,956.534668 1892.071655,959.733643 1910.888184,958.199402 
	C1915.566040,957.817993 1920.184570,958.424438 1924.780640,959.378967 
	C1933.335815,961.155701 1941.905396,961.779480 1951.189209,958.576172 
z"/>
<path fill="#E7CACF" opacity="1.000000" stroke="none" 
	d="
M4002.000000,115.062683 
	C3996.667725,116.001015 3991.335205,116.038979 3986.003174,115.996376 
	C3967.384766,115.847610 3948.885498,117.392395 3930.446533,119.832245 
	C3929.787354,119.919456 3929.112061,120.002365 3928.453125,119.956604 
	C3910.455078,118.706184 3892.625000,122.378929 3874.684326,121.916008 
	C3855.687256,121.425835 3836.904297,124.214714 3818.001953,124.734734 
	C3811.424805,124.915680 3804.884766,125.614143 3798.390625,125.726204 
	C3779.770996,126.047478 3761.194092,129.615753 3742.780518,128.631058 
	C3728.674072,127.876717 3714.900146,129.631119 3701.136475,130.490067 
	C3682.179443,131.673111 3663.243164,131.166992 3644.345459,132.189957 
	C3628.157715,133.066223 3612.036865,135.274368 3595.911865,137.115891 
	C3593.517578,137.389328 3591.372070,137.342545 3589.072998,136.758163 
	C3583.500488,135.341644 3577.587402,135.151627 3572.206543,136.337082 
	C3562.261475,138.528229 3552.178223,136.717331 3542.412842,138.206543 
	C3521.618408,141.377701 3500.548584,138.088776 3479.804443,141.745392 
	C3474.303711,142.714981 3468.496582,142.103409 3462.835938,141.973618 
	C3452.151123,141.728622 3441.574463,142.186111 3431.210205,145.185959 
	C3429.023438,145.818954 3426.410889,146.377060 3424.343262,145.773651 
	C3417.059326,143.647827 3409.909668,145.700165 3402.760010,145.603638 
	C3383.088623,145.338013 3363.650391,148.752029 3343.983154,148.106796 
	C3325.383057,147.496613 3306.881836,149.581070 3288.428955,151.826508 
	C3287.110596,151.986954 3285.759033,152.071289 3284.437500,151.978287 
	C3265.106934,150.617950 3245.921631,153.546051 3226.680664,154.351730 
	C3204.165527,155.294495 3181.657471,157.039520 3159.129150,158.256073 
	C3144.348389,159.054245 3129.515137,158.619400 3114.795410,160.080139 
	C3095.309570,162.013931 3075.630371,160.731659 3056.232178,163.852997 
	C3055.577881,163.958313 3054.900146,163.993423 3054.237793,163.962311 
	C3032.927246,162.960815 3011.796631,167.149231 2990.466064,166.063431 
	C2977.480469,165.402420 2964.682617,167.660706 2951.891357,169.592026 
	C2950.577393,169.790421 2949.232178,170.028076 2947.919189,169.950150 
	C2926.598145,168.684891 2905.432861,172.142349 2884.149658,172.011673 
	C2860.555420,171.866821 2837.101807,174.333084 2813.585205,175.654160 
	C2798.017822,176.528702 2782.533691,178.744583 2766.824219,178.154846 
	C2747.238281,177.419586 2727.717529,179.400345 2708.272461,181.833069 
	C2706.299072,182.079956 2704.269531,182.105759 2702.282227,181.979172 
	C2679.626709,180.535934 2657.080322,183.438583 2634.536377,184.510284 
	C2619.271729,185.235947 2603.959229,184.959412 2588.752197,186.161453 
	C2563.923340,188.124023 2539.076904,189.170258 2514.202393,190.235840 
	C2485.439697,191.468002 2456.692871,193.229691 2427.939941,194.623596 
	C2412.157227,195.388718 2395.995361,193.842484 2380.335693,197.783630 
	C2378.131348,198.338425 2375.676514,198.141251 2373.360840,197.973160 
	C2354.025391,196.569885 2334.810791,199.335464 2315.617432,200.499374 
	C2302.340332,201.304520 2288.953369,200.578934 2275.848145,202.260254 
	C2257.561279,204.606384 2239.198242,202.456207 2221.073730,204.293182 
	C2197.976562,206.634155 2174.602051,205.299332 2151.710205,209.873215 
	C2150.743164,210.066467 2149.711670,210.040329 2148.718018,209.982162 
	C2124.403076,208.558807 2100.113281,210.929153 2075.994141,212.623856 
	C2057.140869,213.948578 2038.228149,213.239044 2019.336182,215.364594 
	C2004.637451,217.018356 1989.637207,218.937363 1974.625977,218.026947 
	C1955.646851,216.875839 1936.801025,219.883057 1917.875610,220.544800 
	C1904.983521,220.995590 1891.867432,220.523895 1879.119141,222.270706 
	C1857.041748,225.295868 1834.637939,222.520584 1812.647217,227.104156 
	C1806.789429,228.325119 1800.214600,225.196289 1793.912476,226.051468 
	C1777.786621,228.239655 1761.403320,226.839966 1745.334106,229.679611 
	C1744.354126,229.852783 1743.338257,230.015533 1742.355103,229.948456 
	C1723.025391,228.629898 1703.895996,232.288773 1684.583374,232.212524 
	C1673.381836,232.168274 1662.150269,234.033783 1650.977539,235.408676 
	C1646.976318,235.901062 1643.013428,236.023438 1639.032227,235.977264 
	C1613.099487,235.676407 1587.279785,236.618362 1561.446045,239.567810 
	C1550.494141,240.818176 1539.254639,243.576004 1527.891479,240.188797 
	C1521.734619,238.353561 1515.462769,241.964890 1509.163574,241.944153 
	C1490.542236,241.882843 1472.067139,244.467529 1453.390991,244.275955 
	C1435.970947,244.097244 1418.523315,246.039139 1401.049805,245.992325 
	C1397.997803,245.984146 1395.146729,246.734497 1392.239258,247.515472 
	C1385.820801,249.239487 1379.481079,250.913849 1372.697388,248.363327 
	C1370.066772,247.374237 1366.576660,247.492020 1363.805664,248.271072 
	C1354.608032,250.857117 1345.243164,249.325424 1336.000122,250.081223 
	C1316.430664,251.681351 1296.773926,251.152588 1277.245361,252.380234 
	C1256.395386,253.690964 1235.526001,254.941238 1214.707520,256.466797 
	C1197.398438,257.735168 1179.954346,255.997955 1162.962891,258.430420 
	C1145.740234,260.896027 1128.510376,259.459930 1111.287476,261.343842 
	C1096.579712,262.952576 1081.543823,263.921661 1066.580444,264.089233 
	C1047.397827,264.304077 1028.180786,265.255402 1009.088989,266.546539 
	C995.126160,267.490845 981.197632,267.225403 967.286377,268.064484 
	C947.374939,269.265472 927.408081,269.311707 907.534058,270.407928 
	C888.355896,271.465729 869.137024,272.893097 850.002991,274.498779 
	C832.007935,276.008911 813.981995,274.200195 796.230835,276.319275 
	C778.447937,278.442139 760.254517,275.851898 742.800659,281.285706 
	C740.327515,282.055603 737.497925,282.166931 734.890442,281.936584 
	C721.964478,280.794800 708.987183,281.481476 696.161499,282.276947 
	C677.895203,283.409851 659.601074,283.198608 641.390747,284.310944 
	C619.874023,285.625214 598.402466,287.454468 576.829346,288.157501 
	C555.105225,288.865387 533.320923,289.857880 511.749847,292.345520 
	C498.425964,293.882019 485.142151,292.900208 471.956787,294.174377 
	C451.122711,296.187622 430.191254,294.726288 409.463898,296.423370 
	C396.623779,297.474640 383.546204,296.503601 370.838379,299.663116 
	C367.684784,300.447205 364.188202,300.188599 360.880432,299.959534 
	C342.873260,298.712555 325.002258,301.383942 307.135101,302.497711 
	C295.532776,303.220978 283.712097,302.357086 272.385101,304.310028 
	C253.552582,307.557037 234.426132,303.585144 215.771347,307.855652 
	C214.497513,308.147247 213.112534,308.028931 211.782654,307.988831 
	C188.155853,307.276886 164.683380,310.474091 141.137512,310.916046 
	C118.944183,311.332642 96.976570,315.600220 74.708298,314.088776 
	C69.592064,313.741516 64.690277,314.894775 62.181946,321.137573 
	C60.709743,322.990051 58.997082,323.509552 57.437588,323.047668 
	C39.164101,317.635101 20.553017,313.225739 2.594950,304.533264 
	C2.000000,203.353241 2.000000,102.706482 2.000001,2.067114 
	C1335.333374,2.074502 2668.666748,2.074502 4002.000000,2.074502 
	C4002.000000,39.474457 4002.000000,76.799911 4002.000000,115.062683 
z"/>
<path fill="#D8A8AF" opacity="1.000000" stroke="none" 
	d="
M2751.498535,2304.510254 
	C2762.664795,2299.434570 2773.324463,2294.857666 2783.995117,2290.306396 
	C2813.108887,2277.888184 2841.343506,2263.717529 2869.179443,2248.646973 
	C2894.658936,2234.852051 2919.509766,2220.038086 2943.597656,2204.012695 
	C2966.830566,2188.556396 2989.715820,2172.531982 3011.654297,2155.253906 
	C3036.948730,2135.332520 3061.737061,2114.822998 3085.863770,2093.452881 
	C3118.538818,2064.511719 3149.955322,2034.276245 3179.911133,2002.625122 
	C3197.692871,1983.837402 3215.530029,1965.027832 3232.327148,1945.242432 
	C3246.495850,1928.552856 3261.173096,1912.238281 3275.281982,1895.481079 
	C3291.735107,1875.939575 3307.184814,1855.556274 3323.479248,1835.877075 
	C3343.185791,1812.077271 3361.631348,1787.309692 3380.259766,1762.690674 
	C3411.121338,1721.904053 3441.240479,1680.554077 3472.217773,1639.856812 
	C3497.355957,1606.830688 3521.821289,1573.288940 3547.861328,1540.944580 
	C3561.181396,1524.400024 3573.468018,1507.013916 3587.005127,1490.656372 
	C3601.392822,1473.271362 3615.492920,1455.648193 3630.157471,1438.475464 
	C3644.592773,1421.571045 3659.268799,1404.862549 3673.540527,1387.811646 
	C3680.145020,1379.921143 3687.208740,1372.293701 3694.413574,1365.049561 
	C3715.782715,1343.563232 3734.851562,1319.803589 3757.561035,1299.722534 
	C3778.221436,1281.453857 3797.099609,1261.316040 3818.581787,1243.874390 
	C3835.826904,1229.872803 3852.133301,1214.674561 3869.835205,1201.190796 
	C3885.152344,1189.523682 3900.645996,1178.085815 3916.152588,1166.670166 
	C3940.283203,1148.905029 3965.574219,1132.911865 3991.363770,1117.684570 
	C3994.252686,1115.978882 3997.012207,1114.136719 4001.253418,1114.014404 
	C4002.000000,1299.375122 4002.000000,1484.750244 4002.000000,1671.062744 
	C3976.477783,1700.127197 3954.181152,1730.900879 3930.106201,1760.216797 
	C3906.453857,1789.018433 3883.505615,1818.456665 3860.157715,1847.529907 
	C3830.780273,1884.110840 3800.823486,1920.255737 3771.525391,1956.888184 
	C3743.241943,1992.252197 3715.096191,2027.750366 3686.652832,2062.986572 
	C3646.708984,2112.469238 3607.345215,2162.416992 3567.012451,2211.591309 
	C3531.778564,2254.548828 3497.905273,2298.634277 3462.715576,2341.610596 
	C3430.874268,2380.497803 3399.687012,2419.921387 3367.810791,2458.782227 
	C3333.210449,2500.964111 3299.236816,2543.718018 3265.354736,2586.515869 
	C3243.460693,2614.170410 3220.604248,2641.078857 3198.493896,2669.487793 
	C2953.958252,2670.000000 2709.916260,2670.000000 2464.937256,2670.000000 
	C2461.201660,2666.458008 2463.762451,2663.770508 2465.522217,2661.048584 
	C2477.843994,2641.991699 2492.002197,2624.188721 2507.351562,2607.682373 
	C2525.573242,2588.086670 2540.545410,2566.171387 2556.617676,2545.032959 
	C2570.113525,2527.283447 2585.777100,2511.362549 2599.022705,2493.379639 
	C2604.293213,2486.223877 2610.842529,2479.803223 2615.897949,2472.450439 
	C2626.097412,2457.614990 2638.848389,2445.014404 2650.313232,2431.296875 
	C2664.801758,2413.961426 2678.307861,2395.828857 2692.662598,2378.387451 
	C2712.522217,2354.257812 2729.960449,2328.208496 2751.498535,2304.510254 
z"/>
<path fill="#DDB0B7" opacity="1.000000" stroke="none" 
	d="
M1883.527710,1674.529297 
	C1894.483398,1676.609131 1905.129883,1675.958252 1915.727173,1675.982544 
	C1935.338135,1676.027344 1954.949951,1675.887939 1974.559814,1676.039062 
	C1980.582886,1676.085449 1986.473511,1675.612793 1993.134521,1674.096680 
	C1994.853638,1675.047485 1995.904541,1675.349365 1997.588135,1674.471069 
	C2016.776001,1674.996338 2035.331665,1670.688843 2055.028809,1671.953369 
	C2057.511719,1670.918945 2059.501221,1672.105469 2061.524414,1670.501709 
	C2065.438721,1670.035767 2068.853760,1670.009766 2073.122070,1669.975342 
	C2076.198242,1668.589844 2078.979492,1670.985474 2081.561035,1668.486450 
	C2087.282471,1667.873413 2092.459717,1667.521362 2097.726562,1666.648682 
	C2115.882324,1663.640381 2134.314453,1662.411011 2152.304688,1658.204590 
	C2154.821777,1657.615967 2157.573730,1658.031006 2161.095703,1657.973633 
	C2163.516357,1656.923828 2165.510010,1658.107056 2167.524902,1656.499390 
	C2172.696045,1654.678467 2177.411865,1653.595459 2183.169922,1653.959961 
	C2185.819336,1654.376343 2187.587158,1654.529785 2189.528809,1652.522827 
	C2204.104004,1648.828857 2218.193848,1645.652710 2232.254395,1642.351929 
	C2246.328125,1639.048218 2260.372803,1635.620117 2275.205322,1632.137939 
	C2273.441895,1639.793457 2268.538818,1643.992310 2259.926270,1644.134155 
	C2251.705322,1644.269409 2244.880371,1649.207031 2237.842773,1652.704590 
	C2234.130615,1654.549316 2231.098389,1656.843262 2226.894775,1655.294067 
	C2223.220459,1653.939941 2219.953857,1655.147949 2217.876221,1657.773193 
	C2215.004150,1661.402344 2211.554443,1662.251587 2207.364990,1662.041138 
	C2204.247559,1661.884766 2201.523682,1663.148438 2198.902344,1664.682007 
	C2191.981689,1668.730103 2184.972168,1672.481201 2176.562500,1672.087280 
	C2174.159424,1671.974731 2171.858398,1672.782715 2169.978027,1674.146851 
	C2166.044678,1677.000000 2161.856934,1678.428223 2156.937744,1678.107422 
	C2153.486084,1677.882202 2149.692139,1678.956177 2147.986328,1681.736572 
	C2142.232666,1691.115112 2132.595703,1688.840332 2124.751709,1688.724609 
	C2117.999512,1688.625122 2113.057617,1689.068970 2109.472412,1694.911621 
	C2106.878174,1699.138794 2102.998291,1700.121582 2098.345947,1700.053833 
	C2091.522217,1699.954224 2084.132568,1698.371826 2079.852783,1706.344604 
	C2079.275879,1707.419067 2076.923584,1707.583374 2075.364014,1708.076416 
	C2073.462402,1708.677612 2071.277100,1708.778198 2069.654053,1709.796021 
	C2062.582275,1714.231201 2055.471924,1717.803345 2046.823486,1714.345825 
	C2046.096680,1714.055176 2044.738892,1714.571533 2044.021851,1715.146362 
	C2037.307983,1720.530029 2028.125610,1719.707886 2021.116821,1724.355225 
	C2018.834229,1725.868652 2016.103882,1726.040039 2013.403564,1726.018433 
	C2009.553589,1725.987549 2005.981567,1727.248413 2003.391235,1729.903198 
	C1997.963257,1735.466553 1991.365356,1736.552490 1984.117798,1736.007324 
	C1978.194214,1735.561523 1972.758667,1736.143066 1969.710571,1742.389771 
	C1968.318970,1745.241943 1965.911133,1745.775757 1962.957397,1744.654297 
	C1960.686523,1743.792114 1958.132324,1743.647217 1956.270508,1745.270142 
	C1944.638428,1755.410156 1929.228027,1756.306274 1915.740723,1761.877319 
	C1909.931152,1764.276978 1904.288330,1766.723877 1898.663696,1769.571899 
	C1891.530518,1773.184326 1883.069824,1774.646240 1875.004761,1775.816284 
	C1866.768311,1777.010986 1859.088745,1780.382812 1850.709351,1780.994019 
	C1847.114258,1781.256348 1844.161377,1784.181396 1842.276978,1787.529907 
	C1840.663696,1790.396606 1838.275513,1792.528320 1835.055420,1791.853394 
	C1823.885376,1789.512451 1815.375366,1796.555664 1806.255615,1800.404419 
	C1800.658569,1802.766602 1795.037720,1804.450684 1789.306152,1805.520142 
	C1783.791260,1806.549072 1778.016846,1805.921265 1773.721313,1810.680542 
	C1773.021240,1811.456055 1770.973022,1811.869019 1770.023560,1811.427246 
	C1763.591553,1808.434570 1758.414551,1811.745972 1753.067261,1814.413818 
	C1752.472412,1814.710693 1751.842163,1815.180664 1751.234253,1815.171631 
	C1740.755249,1815.017212 1733.575928,1821.912231 1725.818115,1827.321899 
	C1722.408081,1829.699829 1719.354126,1830.380859 1715.621948,1828.881348 
	C1711.743530,1827.323120 1708.499512,1828.390381 1705.674683,1831.330078 
	C1703.349854,1833.749634 1700.923340,1836.221191 1697.193970,1835.917603 
	C1692.106812,1835.503662 1688.331665,1836.864258 1685.669922,1841.730835 
	C1683.901855,1844.963257 1680.709473,1843.835327 1677.720581,1842.541504 
	C1669.540649,1839.000610 1668.887939,1839.295532 1664.146606,1846.396973 
	C1660.228394,1852.265625 1654.587646,1855.177612 1647.682251,1856.001221 
	C1636.868774,1857.290894 1626.631470,1860.415649 1616.281128,1863.944824 
	C1607.385498,1866.978027 1598.826904,1871.917725 1588.980713,1872.075195 
	C1584.800537,1872.141968 1581.173950,1873.710693 1578.588257,1877.144775 
	C1577.389893,1878.736328 1576.341553,1881.400146 1574.469604,1881.181152 
	C1564.345337,1879.996460 1556.757812,1888.036499 1546.922729,1888.228638 
	C1540.248169,1888.359009 1534.376831,1892.314331 1528.276978,1894.895264 
	C1525.236938,1896.181763 1522.465332,1898.210449 1518.855713,1896.645630 
	C1516.879517,1895.788818 1514.599243,1896.225220 1513.175049,1897.566162 
	C1507.838867,1902.589478 1501.767090,1904.685303 1494.397217,1905.611816 
	C1490.456543,1906.107178 1486.365479,1908.201294 1482.015869,1907.978394 
	C1477.835083,1907.764160 1474.572021,1909.283081 1471.006104,1911.579346 
	C1465.791016,1914.937256 1460.081299,1917.911987 1453.482544,1918.034912 
	C1449.060425,1918.117310 1444.779419,1919.435791 1441.139771,1921.651123 
	C1436.132446,1924.698730 1431.134888,1926.649780 1425.193237,1926.125854 
	C1423.658813,1925.990601 1420.864990,1926.537598 1420.629028,1927.347778 
	C1417.699585,1937.404053 1407.247803,1932.259155 1401.397705,1937.057129 
	C1395.958984,1941.517822 1388.805054,1944.008667 1381.250244,1944.292847 
	C1379.071289,1944.374878 1376.903809,1945.802124 1374.811279,1946.783813 
	C1373.316162,1947.484863 1371.854126,1949.344604 1370.550537,1949.193481 
	C1360.131958,1947.985352 1351.842773,1955.203369 1342.003418,1956.116089 
	C1338.225098,1956.466553 1334.646973,1957.816040 1332.663696,1961.159790 
	C1330.262207,1965.208618 1326.839722,1966.346802 1322.556641,1965.987427 
	C1317.545288,1965.567139 1313.560059,1966.729614 1310.787842,1971.541992 
	C1309.295776,1974.132080 1306.223267,1975.680908 1303.020264,1975.159546 
	C1292.926270,1973.516235 1283.421997,1977.210083 1273.625122,1978.185059 
	C1272.073853,1978.339478 1270.104248,1979.010132 1269.199097,1980.139893 
	C1264.637817,1985.833862 1259.247559,1988.034668 1251.911377,1986.260132 
	C1248.583008,1985.455322 1246.861450,1988.735229 1245.170288,1991.290649 
	C1242.918579,1994.693359 1240.351685,1996.619141 1236.152344,1993.535400 
	C1231.871826,1990.392334 1228.147827,1993.499878 1224.106445,1995.047607 
	C1209.324707,2000.708496 1194.687378,2006.653198 1179.152588,2010.386719 
	C1171.479248,2012.230957 1164.584839,2017.217041 1156.078003,2016.844971 
	C1155.040771,2016.799561 1153.687744,2018.978149 1152.855347,2020.352783 
	C1151.450562,2022.673828 1149.812012,2023.606201 1147.085571,2022.684692 
	C1142.804321,2021.237793 1139.534790,2023.209473 1136.130737,2025.729858 
	C1129.999390,2030.269775 1123.483521,2034.166992 1115.378906,2034.054932 
	C1111.130859,2033.996216 1107.435547,2035.446167 1105.382690,2039.436646 
	C1103.640625,2042.822998 1100.912476,2043.526611 1097.342285,2044.147705 
	C1087.959473,2045.780273 1078.707031,2048.166260 1069.409424,2050.282227 
	C1067.808105,2050.646484 1065.881714,2051.978027 1064.715698,2051.468018 
	C1057.514648,2048.317871 1052.524780,2051.403320 1048.231201,2056.754395 
	C1044.514893,2061.385742 1038.913452,2059.517090 1034.260254,2060.844727 
	C1029.032227,2062.336670 1028.180786,2069.013428 1022.702637,2069.751709 
	C1020.732971,2070.017090 1018.710571,2070.055176 1016.720886,2069.977295 
	C1009.335632,2069.687744 1002.179688,2069.655273 996.368652,2075.600830 
	C994.310974,2077.706543 990.999634,2078.125244 987.900146,2078.006836 
	C985.138611,2077.901367 982.706604,2078.702637 980.461792,2080.388916 
	C977.443176,2082.656250 974.261719,2084.105957 970.259827,2082.524658 
	C968.852112,2081.968750 966.761963,2081.996826 965.401978,2082.641113 
	C952.909485,2088.561035 938.737061,2090.687988 927.484924,2099.402588 
	C926.446350,2100.206787 925.155701,2101.508545 924.132507,2101.380371 
	C915.462219,2100.292480 907.682739,2106.256104 898.858521,2104.280762 
	C894.525085,2103.311035 890.219543,2103.738037 887.601440,2108.475098 
	C886.864075,2109.809326 885.260925,2111.391846 883.907959,2111.542969 
	C874.174133,2112.627930 867.260742,2118.388184 860.579956,2124.772705 
	C859.192749,2126.098389 857.161865,2127.560547 855.421997,2127.567627 
	C847.719482,2127.598877 840.539734,2129.443115 833.209229,2131.682129 
	C828.507141,2133.118652 823.406738,2133.151367 819.348633,2136.493896 
	C817.393188,2138.104492 814.996887,2138.033203 812.675476,2137.981689 
	C808.203735,2137.882324 804.011108,2139.170898 800.273438,2141.300781 
	C797.258362,2143.018799 794.332947,2144.028076 790.891296,2144.081543 
	C786.309326,2144.152832 782.237244,2146.029785 779.680664,2149.721191 
	C776.961731,2153.646973 773.376282,2154.487305 769.259094,2153.950928 
	C758.594666,2152.562012 749.308411,2157.758301 739.388062,2159.900635 
	C737.013184,2160.413330 735.098022,2161.753174 733.530029,2163.520508 
	C730.695801,2166.715088 727.306091,2168.442139 722.954468,2168.012695 
	C722.296143,2167.947754 721.618103,2168.092285 720.957886,2168.036865 
	C715.277222,2167.562012 713.658630,2173.288818 709.703857,2175.351562 
	C705.801392,2177.387207 701.198975,2171.940674 697.394775,2175.909668 
	C693.782471,2179.678467 689.382141,2180.082031 684.594604,2180.130615 
	C680.422241,2180.173096 676.589966,2181.786865 674.416748,2185.488037 
	C671.965515,2189.662109 668.299316,2190.235107 664.140259,2189.988037 
	C655.650940,2189.483887 647.640076,2190.585449 640.266785,2195.421875 
	C637.887268,2196.982666 634.527344,2197.975342 631.722778,2197.769531 
	C625.786011,2197.334473 624.715759,2203.982178 620.503906,2204.861328 
	C616.486145,2205.699707 612.070862,2203.038574 607.795288,2204.618408 
	C606.626343,2205.050537 605.436340,2205.994629 604.734558,2207.028320 
	C600.347839,2213.490723 593.272095,2214.494873 586.531006,2215.865967 
	C583.602600,2216.461426 580.462463,2216.349365 577.972351,2218.145508 
	C574.031860,2220.987793 569.851990,2222.418701 564.932800,2222.142334 
	C563.045166,2222.036621 560.818054,2222.567871 559.229309,2223.573242 
	C554.633911,2226.481689 549.885681,2228.326904 544.342407,2228.447266 
	C542.137146,2228.495605 539.084412,2229.236084 537.913879,2230.789062 
	C530.119446,2241.131104 518.118835,2239.509521 507.578522,2242.010986 
	C505.648346,2242.469238 503.507599,2242.390137 501.757019,2243.195557 
	C493.563263,2246.966064 485.038971,2249.364746 476.081268,2250.432129 
	C473.784637,2250.705811 471.516846,2251.921143 470.274658,2254.018555 
	C467.098602,2259.381836 462.211334,2260.473145 456.542023,2260.025635 
	C453.469482,2259.782959 450.452179,2260.374268 447.955505,2262.140625 
	C444.520416,2264.571045 441.185394,2266.115967 436.893585,2264.280762 
	C435.405548,2263.644531 433.387115,2264.129883 432.192505,2265.318848 
	C427.088165,2270.398193 420.434448,2271.162109 413.868103,2272.035156 
	C410.321503,2272.506592 408.094116,2275.267822 405.000580,2276.420166 
	C400.319305,2278.164307 395.505371,2279.805176 390.527985,2279.861084 
	C384.652252,2279.927246 379.252289,2280.156738 375.673370,2285.855469 
	C374.029541,2288.472900 370.973663,2288.032227 368.348328,2287.965576 
	C362.897827,2287.827637 358.647125,2288.614746 354.361725,2293.413330 
	C351.040497,2297.132080 344.426178,2298.268799 339.046417,2299.678467 
	C334.629303,2300.836182 330.787933,2302.116211 328.678955,2306.479004 
	C327.111267,2309.722168 324.184540,2310.170654 321.059265,2309.974609 
	C315.881927,2309.649902 311.185028,2310.764893 306.950317,2313.919189 
	C305.672150,2314.871094 303.878357,2315.894043 302.440125,2315.743408 
	C293.539032,2314.812500 286.037048,2321.253662 277.121002,2320.329102 
	C275.351410,2320.145996 273.191040,2321.272949 271.597107,2322.361328 
	C268.202972,2324.678467 264.759186,2326.381104 260.505188,2326.096191 
	C258.104828,2325.935303 255.964203,2327.015625 253.900833,2328.132080 
	C253.024384,2328.606201 252.165207,2329.129883 251.360489,2329.716553 
	C245.438431,2334.035156 237.432968,2330.479248 231.486115,2335.189209 
	C226.022827,2339.516113 220.276276,2343.634277 212.541702,2342.111816 
	C211.623672,2341.931396 210.372238,2342.066895 209.631317,2342.575195 
	C201.026947,2348.474365 190.412537,2349.239990 181.286346,2353.772217 
	C180.107941,2354.357422 178.585785,2355.736816 177.801529,2355.399902 
	C169.632797,2351.894775 164.424118,2359.013916 157.880310,2360.411133 
	C147.728806,2362.578857 139.089767,2366.357422 131.397079,2372.973633 
	C130.928207,2373.376953 130.070648,2373.770752 129.560013,2373.616943 
	C121.416870,2371.167725 114.048851,2376.124512 106.165161,2376.000488 
	C105.499023,2375.989990 104.810791,2376.122070 104.169312,2375.998047 
	C96.440903,2374.508545 93.345642,2383.719727 86.650841,2383.799561 
	C79.877075,2383.880371 74.228485,2384.743652 70.806076,2391.552734 
	C69.446053,2394.258789 66.100021,2395.380615 63.340450,2396.295898 
	C52.642048,2399.845947 42.395805,2404.602783 30.977358,2406.223877 
	C21.622040,2407.552246 12.362864,2410.164795 2.752895,2413.889404 
	C2.000000,2245.958252 2.000000,2077.916504 2.000000,1908.937256 
	C5.889410,1902.407104 11.563664,1899.823120 18.030849,1898.909424 
	C35.023369,1896.508667 50.233704,1888.448486 66.499916,1883.858887 
	C85.558640,1878.481079 103.045212,1868.087158 123.325920,1866.574951 
	C131.383301,1865.974121 138.161285,1860.874390 145.829575,1858.532959 
	C177.608276,1848.829712 209.058884,1838.093262 240.657364,1827.820557 
	C249.293915,1825.012939 255.909164,1818.650635 264.311035,1815.096802 
	C276.981140,1809.737793 290.846558,1810.356689 303.467682,1804.813110 
	C319.237946,1797.886353 335.652527,1792.379395 351.851349,1786.427612 
	C360.790131,1783.143555 370.070282,1780.606812 379.128082,1778.011353 
	C419.353577,1766.484131 458.708557,1752.343750 498.577026,1739.776611 
	C511.561157,1735.683960 522.785278,1727.462402 536.423279,1724.546631 
	C556.130310,1720.333496 573.837646,1710.109985 593.199707,1704.417480 
	C606.742432,1700.435669 619.919250,1694.704712 633.577515,1691.035400 
	C662.496826,1683.266479 690.492737,1672.653076 719.131226,1664.011963 
	C742.495361,1656.962280 766.674866,1651.143066 787.789062,1637.526855 
	C794.673523,1633.087158 803.411072,1631.884277 811.352417,1629.765747 
	C824.191345,1626.340820 836.878723,1623.005493 848.502930,1616.305298 
	C852.887756,1613.777710 858.257690,1614.470337 863.026306,1612.878784 
	C911.195435,1596.803101 959.687988,1581.726685 1007.604492,1564.849243 
	C1027.972778,1557.674805 1047.075928,1547.601562 1067.416992,1540.709351 
	C1089.367310,1533.271851 1111.649902,1526.778564 1133.655762,1519.451538 
	C1139.738647,1517.426147 1146.244507,1518.892334 1153.281738,1517.967651 
	C1164.738525,1519.209961 1174.643799,1523.270020 1184.736450,1526.582397 
	C1256.812866,1550.236572 1329.226929,1572.739746 1402.455688,1592.625244 
	C1436.787964,1601.948364 1471.020142,1611.650024 1505.636353,1619.851562 
	C1548.909790,1630.104370 1592.409058,1639.431030 1636.160034,1647.349121 
	C1651.752075,1650.171021 1667.401489,1653.401367 1683.381104,1654.258179 
	C1691.279785,1654.681763 1698.869019,1657.549927 1706.873779,1658.420898 
	C1728.270630,1660.749390 1749.536743,1664.144043 1770.990723,1666.212158 
	C1796.088013,1668.631348 1821.127197,1671.333618 1846.355835,1672.349609 
	C1854.236938,1672.667114 1862.164185,1674.115479 1871.066895,1674.044678 
	C1875.433594,1677.113403 1879.134521,1677.181519 1883.527710,1674.529297 
z"/>
<path fill="#E1C0C5" opacity="1.000000" stroke="none" 
	d="
M1951.071289,958.040649 
	C1947.978149,962.483826 1937.453979,966.336792 1931.761475,964.832581 
	C1921.657227,962.162354 1911.622192,960.436890 1901.311157,963.651062 
	C1900.090454,964.031616 1898.555542,964.130615 1897.359741,963.750977 
	C1886.453979,960.288879 1875.544922,961.939392 1864.825317,964.182922 
	C1855.515625,966.131287 1846.444946,966.637024 1837.256226,964.061340 
	C1830.027710,962.035156 1822.769775,964.031494 1815.525513,964.011292 
	C1797.532471,963.961060 1779.539185,964.011597 1761.546021,963.982483 
	C1757.527344,963.975952 1753.481934,963.841858 1749.914795,966.071472 
	C1744.297729,969.582520 1738.176514,970.229431 1731.702026,970.062744 
	C1721.712402,969.805603 1711.711426,970.009521 1701.715210,969.987976 
	C1697.396606,969.978638 1693.106689,970.121643 1688.864990,968.701477 
	C1685.341919,967.522034 1681.432129,967.292297 1678.131348,969.141663 
	C1672.555908,972.265564 1666.597412,971.691284 1660.631226,972.057861 
	C1638.969238,973.388977 1617.505249,969.272522 1595.869385,969.961914 
	C1580.022217,970.466919 1564.109863,973.749023 1548.388062,971.700745 
	C1528.756714,969.143188 1509.178467,970.696289 1489.594238,969.976990 
	C1484.089233,969.774841 1479.064941,970.427124 1475.002808,974.830872 
	C1472.361084,977.694702 1468.587280,978.160278 1464.812988,977.983826 
	C1451.224365,977.348816 1437.579102,979.281311 1424.005249,976.306885 
	C1418.941650,975.197327 1413.268799,975.040649 1408.186279,977.016541 
	C1398.377563,980.829834 1388.640381,979.834167 1378.874634,977.232422 
	C1376.274780,976.539795 1373.561279,975.391418 1371.050903,976.106812 
	C1360.471313,979.122009 1350.002075,976.662415 1339.479492,976.035461 
	C1332.822144,975.638733 1326.125244,975.731873 1319.747925,978.054871 
	C1315.443115,979.622986 1311.228760,978.031494 1307.019653,978.189392 
	C1296.755249,978.574280 1286.591431,976.790100 1276.256470,977.751160 
	C1268.080811,978.511230 1259.611084,976.931580 1251.484619,976.906372 
	C1241.673950,976.875854 1231.342773,976.319092 1221.785156,978.428589 
	C1202.651123,982.651794 1183.438965,981.774048 1164.186890,982.020569 
	C1155.567871,982.130859 1147.012451,981.862305 1138.357178,983.563904 
	C1131.663696,984.879883 1124.431152,984.864014 1117.548096,982.875793 
	C1116.277100,982.508606 1114.945801,982.135986 1113.641235,982.132446 
	C1093.983521,982.079590 1074.266602,981.181641 1054.692749,982.461121 
	C1044.767090,983.109985 1034.846802,984.040527 1024.896362,983.949524 
	C998.692871,983.709778 972.490784,984.271362 946.289490,983.956299 
	C940.838135,983.890747 935.613953,984.233948 931.173401,987.832947 
	C928.343262,990.126831 924.994507,989.997437 921.654297,989.995728 
	C909.658875,989.989685 897.663391,989.984497 885.667969,990.000427 
	C881.347656,990.006226 877.056213,989.881042 872.810425,991.271606 
	C870.672424,991.971924 868.041138,992.325562 865.928650,991.750061 
	C854.756958,988.706848 843.394836,990.099243 832.131042,990.064514 
	C780.817688,989.906250 729.503601,990.030701 678.189880,989.957153 
	C670.393616,989.945984 662.875671,990.301453 656.718750,996.007996 
	C654.011719,998.516846 650.482361,997.841187 647.184509,998.004456 
	C631.200256,998.795654 615.331726,996.937378 599.417480,996.055786 
	C594.465576,995.781494 589.440186,995.565430 584.583740,997.378601 
	C583.091736,997.935669 581.188477,998.143066 579.667847,997.753052 
	C566.513428,994.378723 553.137695,996.158569 539.881653,996.088196 
	C494.233643,995.845886 448.583527,995.987427 402.934235,996.008789 
	C398.962524,996.010620 394.743774,995.264587 391.199860,997.529053 
	C384.032593,1002.108643 376.155304,1002.180664 368.093018,1002.040649 
	C357.433624,1001.855469 346.766968,1002.107788 336.106567,1001.954041 
	C329.394775,1001.857239 322.795319,1002.093445 316.510895,1004.780762 
	C313.674286,1005.993713 310.556335,1006.584045 307.698212,1005.754517 
	C297.862793,1002.900024 287.841003,1004.363892 277.903168,1004.007751 
	C268.624023,1003.675110 259.387024,1004.267273 250.077499,1002.390808 
	C243.714676,1001.108276 236.808990,1002.660339 230.243683,1002.637329 
	C213.811508,1002.579956 197.389740,1006.154724 180.928696,1002.740906 
	C173.056412,1001.108276 164.844025,1001.126038 157.072311,1002.507996 
	C149.749344,1003.810181 142.536133,1003.864502 135.240356,1003.984253 
	C127.625191,1004.109314 119.896263,1003.135742 112.801003,1007.220398 
	C111.470192,1007.986511 109.566963,1007.894348 107.919220,1007.952515 
	C93.990753,1008.444275 80.086700,1008.286560 66.116875,1009.423340 
	C55.699684,1010.271179 44.963173,1012.153320 34.693893,1011.199890 
	C24.372028,1010.241638 14.127949,1010.548401 2.933169,1009.998230 
	C2.000000,869.958191 2.000000,729.916443 2.000000,588.937317 
	C4.738238,585.201660 8.222462,583.958862 11.970137,584.148132 
	C28.658041,584.990906 45.168552,581.905090 61.804962,582.013916 
	C87.422974,582.181519 113.034668,581.435974 138.657990,581.904175 
	C164.614319,582.378540 190.490845,580.362488 216.355484,578.363647 
	C227.016388,577.539734 237.624344,577.677429 248.101395,580.463501 
	C256.943695,582.814819 265.864990,582.757507 274.705170,580.138367 
	C279.526886,578.709839 284.469482,578.237183 289.487335,577.978149 
	C336.026276,575.576233 382.617004,576.659973 429.168121,575.677368 
	C449.611298,575.245911 470.230896,577.126282 490.618439,572.607544 
	C500.013153,570.525330 509.844727,571.808838 519.330444,574.306824 
	C528.515198,576.725464 537.713440,576.944336 546.847534,573.809570 
	C550.332275,572.613708 553.984192,572.180237 557.663391,572.065918 
	C601.856445,570.692322 646.043945,568.657043 690.268677,570.921570 
	C691.604431,570.989990 692.926208,570.796326 695.121826,570.225464 
	C709.939087,573.613281 722.545959,580.553711 735.728027,586.017761 
	C764.597900,597.984314 793.183594,610.634705 821.943665,622.868591 
	C851.619507,635.491882 881.299927,648.108582 911.096436,660.442993 
	C944.887146,674.430725 978.757507,688.230103 1012.688232,701.874939 
	C1046.927490,715.643677 1081.178833,729.393555 1115.618530,742.648804 
	C1147.262207,754.828003 1179.035278,766.671448 1210.964355,778.109924 
	C1252.612915,793.030457 1294.158569,808.268677 1336.308838,821.691467 
	C1390.145142,838.835632 1444.006714,855.890686 1498.551270,870.782043 
	C1531.232544,879.704407 1564.005981,888.235901 1596.850708,896.475647 
	C1626.787476,903.985779 1656.897095,910.879822 1687.102661,917.226807 
	C1718.892334,923.906555 1750.828247,929.939392 1782.808838,935.645691 
	C1808.242065,940.183838 1833.730225,944.870483 1859.398315,947.484009 
	C1878.850830,949.464783 1898.001465,953.668091 1917.641357,954.358887 
	C1928.490112,954.740417 1939.193848,957.973450 1951.071289,958.040649 
z"/>
<path fill="#DDB0B7" opacity="1.000000" stroke="none" 
	d="
M2527.574707,1534.382324 
	C2537.203369,1528.710693 2546.282227,1523.171997 2555.686523,1518.255615 
	C2595.812500,1497.278442 2634.775635,1474.341919 2673.045898,1450.149414 
	C2696.668213,1435.216309 2720.068115,1419.981323 2742.998779,1404.016968 
	C2777.898193,1379.719971 2812.646973,1355.218506 2846.105225,1328.939331 
	C2870.115479,1310.080566 2894.699951,1291.914551 2918.112305,1272.343750 
	C2940.007324,1254.041260 2962.730957,1236.741333 2983.831543,1217.446289 
	C2999.486816,1203.130859 3016.359863,1190.155884 3032.429199,1176.281494 
	C3046.001709,1164.562622 3059.137207,1152.338989 3072.579102,1140.466553 
	C3087.751465,1127.065796 3103.168945,1113.940186 3118.238525,1100.425781 
	C3124.669434,1094.658447 3131.401855,1089.176636 3137.561768,1083.182617 
	C3153.294678,1067.872192 3170.251221,1053.941895 3186.353516,1039.049194 
	C3203.887695,1022.832275 3222.051514,1007.263794 3239.862549,991.320129 
	C3256.422852,976.496216 3273.806885,962.596741 3290.649414,948.082764 
	C3303.229980,937.241272 3315.411133,925.936523 3327.979004,915.079834 
	C3342.299316,902.709534 3356.838379,890.592285 3371.311035,878.398804 
	C3375.880615,874.549133 3380.541504,870.808044 3385.580322,866.507446 
	C3386.907959,861.816406 3389.818604,859.175415 3392.948975,856.577393 
	C3448.853027,810.177734 3506.792725,766.450623 3566.160400,724.598877 
	C3623.111572,684.450562 3682.205811,647.707214 3743.219238,614.089233 
	C3810.451172,577.044983 3880.416504,546.056824 3952.937500,520.868164 
	C3964.890381,516.716553 3976.702881,512.126038 3988.962891,508.914246 
	C3992.783447,507.913422 3996.561035,506.230011 4001.343262,507.658478 
	C4002.000000,689.375122 4002.000000,870.750244 4002.000000,1053.062744 
	C3996.411865,1053.454346 3991.462646,1054.473145 3987.660645,1059.146851 
	C3986.689453,1060.341431 3984.782227,1061.714355 3983.485840,1061.552979 
	C3974.856934,1060.478760 3967.676758,1066.773438 3959.173584,1066.082764 
	C3957.899658,1065.979370 3956.084717,1066.038940 3955.349121,1066.811890 
	C3948.467529,1074.045410 3939.315186,1073.941772 3930.453613,1074.887451 
	C3929.145508,1075.026978 3927.714844,1076.073364 3926.612549,1075.756104 
	C3919.435791,1073.689819 3919.567871,1085.580444 3912.922363,1083.126343 
	C3906.539551,1080.769409 3902.831543,1083.898193 3898.969971,1087.837891 
	C3898.294922,1088.526611 3897.099121,1089.528442 3896.486084,1089.329834 
	C3889.054932,1086.921021 3883.636230,1093.254639 3877.152832,1093.725464 
	C3868.494141,1094.354492 3861.252686,1098.509399 3853.879883,1101.856079 
	C3848.218262,1104.426025 3842.956299,1106.367798 3836.817627,1106.026855 
	C3833.642822,1105.850464 3831.012451,1106.448730 3829.637695,1109.989136 
	C3828.111572,1113.919434 3825.001709,1114.079346 3821.353516,1112.840332 
	C3818.153320,1111.753540 3814.497803,1110.973389 3812.208740,1114.278198 
	C3808.967529,1118.958740 3804.674316,1120.024292 3799.304443,1120.157715 
	C3792.354004,1120.330444 3787.423828,1125.728149 3781.469971,1128.536499 
	C3777.824219,1130.255859 3774.581543,1132.428345 3770.328369,1132.032593 
	C3767.206787,1131.742188 3764.500488,1132.820068 3761.976562,1134.703369 
	C3759.840332,1136.297241 3757.415283,1137.742554 3754.699707,1137.767456 
	C3748.896484,1137.820923 3743.271973,1137.921997 3740.211426,1144.146851 
	C3739.960449,1144.657837 3739.098145,1145.263794 3738.600586,1145.199951 
	C3728.213623,1143.866577 3720.351074,1152.642700 3710.062500,1152.153320 
	C3704.476562,1151.887695 3699.047363,1154.475342 3693.307617,1154.244995 
	C3690.823730,1154.145264 3689.018311,1155.940796 3687.405762,1157.643311 
	C3683.291504,1161.987061 3678.420166,1164.058716 3672.310303,1164.124390 
	C3666.259277,1164.189575 3660.675293,1165.533081 3656.848877,1171.414062 
	C3654.282471,1175.358276 3650.006836,1176.542114 3645.454102,1173.752808 
	C3641.217041,1171.156860 3637.765381,1172.406494 3635.133301,1176.222412 
	C3632.400391,1180.184814 3629.199219,1180.808960 3624.215820,1180.825806 
	C3617.244629,1180.849487 3610.068604,1183.158569 3603.382812,1185.594971 
	C3597.536865,1187.725464 3591.848145,1190.840576 3586.835205,1194.532104 
	C3582.594238,1197.655151 3578.691895,1198.770874 3573.911865,1196.954956 
	C3569.853027,1195.412842 3566.790527,1196.251465 3564.794434,1200.305908 
	C3562.955078,1204.042480 3559.949463,1204.313354 3556.341064,1203.170654 
	C3554.809570,1202.685669 3552.541748,1201.969971 3551.566895,1202.678223 
	C3541.834473,1209.748413 3527.914062,1206.501953 3519.163818,1216.288940 
	C3515.354736,1220.548950 3509.850098,1222.615356 3503.746582,1222.052246 
	C3501.755371,1221.868408 3499.679443,1222.105347 3498.038330,1223.428589 
	C3487.895264,1231.605835 3475.933105,1234.510986 3463.337402,1236.374146 
	C3457.219727,1237.279053 3451.538818,1240.516357 3444.999268,1240.333008 
	C3439.258789,1240.171997 3438.184326,1250.460815 3430.894287,1247.243774 
	C3424.950195,1244.620483 3420.074219,1248.249390 3415.939453,1250.675659 
	C3406.773926,1256.053955 3396.761230,1259.270508 3387.329346,1263.861816 
	C3385.176025,1264.910156 3383.221436,1266.230591 3380.794922,1265.239380 
	C3375.197998,1262.953369 3370.462158,1264.077026 3366.225586,1268.346924 
	C3365.410156,1269.168335 3363.640625,1269.816650 3362.601562,1269.521729 
	C3352.784912,1266.734619 3344.750244,1273.198364 3335.824463,1274.869263 
	C3331.442139,1275.689575 3327.432617,1280.073364 3323.913818,1283.517700 
	C3319.917480,1287.429321 3315.414795,1288.284912 3310.233887,1288.031494 
	C3305.566650,1287.803101 3300.883057,1287.610840 3297.260498,1291.594727 
	C3295.276855,1293.776123 3292.692871,1294.145020 3289.930908,1292.976440 
	C3285.633545,1291.157959 3282.203613,1292.552246 3279.175293,1295.783447 
	C3278.048340,1296.986206 3276.616455,1298.867065 3275.364990,1298.834839 
	C3266.415039,1298.604004 3260.714355,1303.832642 3254.633789,1309.408936 
	C3250.827148,1312.899902 3245.382080,1314.617676 3239.718750,1314.022461 
	C3235.927002,1313.623901 3232.560547,1314.673340 3229.454590,1317.024414 
	C3226.455078,1319.294678 3222.902344,1320.236694 3219.096436,1319.997925 
	C3215.637207,1319.780884 3212.603271,1320.700317 3209.774170,1322.822021 
	C3207.374756,1324.621460 3204.596680,1326.070435 3201.479004,1325.891968 
	C3196.761230,1325.621704 3193.138428,1327.409668 3190.027588,1330.838257 
	C3188.953369,1332.022217 3187.427002,1333.206543 3185.923584,1333.525757 
	C3173.605713,1336.141235 3161.868896,1340.410767 3150.303955,1345.302856 
	C3148.271973,1346.162354 3145.724609,1345.935547 3143.411621,1345.967529 
	C3139.736816,1346.018555 3136.179932,1346.279785 3132.602051,1347.448120 
	C3123.966064,1350.268188 3117.149658,1357.854980 3107.025879,1357.000854 
	C3105.597656,1356.880249 3103.993652,1359.373047 3102.396973,1360.555908 
	C3101.083252,1361.529053 3099.321045,1363.398682 3098.337402,1363.080322 
	C3089.499512,1360.218628 3082.620361,1367.097168 3074.500732,1367.559082 
	C3071.149658,1367.749756 3067.982666,1368.772339 3065.518799,1371.370605 
	C3063.560303,1373.435791 3060.941650,1374.342041 3058.225098,1373.922974 
	C3051.532227,1372.890625 3045.978516,1376.483887 3039.943848,1378.091187 
	C3038.718750,1378.417358 3036.987305,1378.966553 3036.580078,1379.892578 
	C3033.973389,1385.817993 3029.850342,1386.107178 3024.344727,1384.266479 
	C3021.477051,1383.307861 3017.988037,1384.093872 3016.723145,1387.418091 
	C3015.035400,1391.854248 3011.700928,1392.132568 3007.865479,1392.011353 
	C3003.178955,1391.862915 2999.479248,1393.653931 2995.168945,1395.867920 
	C2988.405029,1399.342041 2981.857910,1404.935181 2973.243164,1404.060669 
	C2970.440430,1403.776123 2968.158936,1405.201538 2965.913086,1406.758179 
	C2963.439941,1408.472412 2960.732910,1410.051147 2957.624512,1409.872192 
	C2951.969971,1409.546387 2947.161133,1410.893066 2943.398438,1415.422485 
	C2941.570801,1417.622437 2938.861816,1418.030640 2936.102295,1417.990601 
	C2932.753418,1417.942017 2929.450684,1417.974609 2926.607666,1420.252075 
	C2924.626953,1421.838623 2922.174561,1422.419434 2920.163818,1420.683228 
	C2915.670654,1416.803223 2912.780518,1419.745972 2910.175293,1422.908203 
	C2905.835449,1428.175293 2900.676025,1430.761841 2893.658691,1430.137939 
	C2889.310303,1429.751343 2884.792236,1431.095581 2881.497070,1433.903442 
	C2875.510254,1439.004761 2868.153320,1441.168213 2861.332764,1444.480713 
	C2856.904297,1446.631592 2852.616699,1449.467529 2847.543701,1445.278442 
	C2845.272949,1443.403442 2843.243896,1445.828491 2841.609619,1447.440430 
	C2837.841064,1451.157715 2834.497314,1456.073853 2828.386963,1450.685669 
	C2827.700195,1450.079956 2825.630127,1450.341064 2824.611816,1450.921021 
	C2814.297607,1456.793213 2801.673828,1457.621460 2792.305420,1465.296143 
	C2787.752930,1469.025391 2783.643311,1470.841064 2777.841797,1468.493896 
	C2774.633301,1467.195679 2771.099609,1467.812134 2769.316650,1471.545410 
	C2766.907715,1476.589600 2762.495605,1476.790039 2758.246582,1475.518433 
	C2753.505859,1474.099731 2749.955811,1474.051392 2747.288330,1478.924805 
	C2745.614990,1481.981445 2742.476807,1482.487915 2739.403564,1481.416260 
	C2736.201904,1480.300049 2733.733398,1481.113281 2731.035645,1482.908203 
	C2723.169189,1488.142212 2715.886719,1494.774170 2705.407715,1494.262451 
	C2704.240479,1494.205444 2702.417480,1494.914185 2701.922119,1495.824707 
	C2698.659180,1501.821655 2693.307861,1502.474976 2687.383545,1502.054321 
	C2686.403809,1501.984741 2684.987061,1501.857666 2684.471680,1502.409790 
	C2678.259766,1509.067749 2668.665527,1506.392456 2661.661377,1510.782593 
	C2660.843262,1511.295288 2659.782227,1511.754639 2658.858154,1511.711914 
	C2650.692871,1511.334229 2643.573486,1514.175049 2636.043945,1517.124268 
	C2630.430908,1519.322754 2624.752930,1520.211914 2621.088135,1525.600342 
	C2620.419434,1526.583374 2618.905762,1527.493774 2617.736572,1527.554077 
	C2608.774414,1528.015747 2601.345215,1532.813354 2593.307129,1535.884888 
	C2589.887939,1537.191528 2586.420166,1538.482666 2582.706055,1536.617676 
	C2581.857178,1536.191406 2580.583984,1535.841553 2579.802979,1536.167847 
	C2572.134033,1539.370850 2564.205322,1540.908936 2555.927246,1541.891968 
	C2552.664062,1542.279419 2549.603027,1546.322266 2545.262451,1546.226440 
	C2543.559326,1546.188965 2541.847656,1547.065918 2541.073975,1548.585815 
	C2538.530518,1553.583618 2534.219482,1554.424072 2529.267334,1554.036133 
	C2528.937988,1554.010254 2528.499756,1553.936401 2528.284424,1554.104980 
	C2520.858154,1559.930054 2510.614502,1558.402710 2503.017578,1563.792236 
	C2501.950928,1564.549194 2500.722168,1565.520874 2499.527588,1565.580688 
	C2492.596924,1565.927490 2485.604736,1565.416504 2481.204102,1572.788452 
	C2479.985352,1574.829834 2476.905029,1573.116333 2474.650635,1572.596680 
	C2470.155029,1571.560547 2466.716064,1571.950562 2463.760010,1576.776123 
	C2460.224365,1582.548462 2454.317871,1585.969116 2447.140381,1585.955566 
	C2442.719482,1585.947266 2438.486328,1586.046387 2435.182373,1589.647949 
	C2433.791016,1591.164673 2431.852051,1591.982300 2429.785889,1591.879883 
	C2424.901123,1591.637939 2420.678223,1593.462402 2416.541260,1595.722900 
	C2413.876465,1597.179077 2411.058838,1598.085449 2407.955811,1598.015991 
	C2404.122803,1597.930176 2400.543945,1598.878052 2398.203369,1602.088257 
	C2395.098145,1606.347046 2391.032715,1606.760986 2386.663086,1605.145020 
	C2381.372070,1603.188232 2378.257812,1604.873535 2374.930176,1609.345703 
	C2369.691406,1616.386353 2364.636475,1615.455200 2360.017578,1606.720459 
	C2374.975586,1599.993896 2389.924316,1593.895142 2404.981689,1588.077637 
	C2415.462158,1584.028442 2425.581787,1579.029053 2437.218994,1575.970947 
	C2440.901367,1576.272949 2443.175537,1575.084229 2445.525879,1572.477783 
	C2447.708984,1569.894043 2450.134766,1570.028442 2453.205322,1569.926514 
	C2455.519287,1568.654419 2457.624756,1568.256836 2459.567871,1566.422119 
	C2470.337158,1560.889771 2480.627197,1555.685303 2491.031982,1550.721802 
	C2496.093750,1548.307007 2501.370605,1546.342773 2507.270020,1544.062134 
	C2509.188477,1543.945190 2510.259033,1543.586792 2511.571777,1542.376953 
	C2514.924805,1538.930542 2518.770996,1537.541504 2523.303955,1536.051025 
	C2525.187744,1535.944702 2526.258545,1535.588501 2527.574707,1534.382324 
z"/>
<path fill="#DAA0A9" opacity="1.000000" stroke="none" 
	d="
M3198.937256,2670.000000 
	C3197.575195,2660.385010 3205.521484,2655.424561 3210.374268,2649.072266 
	C3219.834961,2636.687744 3229.024658,2623.909424 3239.423584,2612.433105 
	C3257.085938,2592.941162 3272.489502,2571.716309 3289.229492,2551.540283 
	C3305.751953,2531.627197 3321.703369,2511.225830 3337.443115,2490.684570 
	C3343.532471,2482.737549 3351.094971,2476.256348 3357.113770,2468.193604 
	C3373.768066,2445.883057 3392.073486,2424.847900 3409.395996,2403.064209 
	C3419.080322,2390.885742 3429.687988,2379.315918 3437.966797,2366.025391 
	C3441.689941,2360.048340 3446.896484,2355.197510 3451.571777,2350.189697 
	C3462.950684,2338.001709 3471.372314,2323.546143 3483.027100,2311.570068 
	C3490.609619,2303.778076 3496.041016,2293.939697 3503.139160,2285.618164 
	C3515.630859,2270.973877 3526.491211,2254.990723 3539.880127,2241.096191 
	C3541.032715,2239.900146 3542.290039,2238.729004 3543.138916,2237.328125 
	C3555.781250,2216.467773 3573.495850,2199.660645 3588.398682,2180.609375 
	C3596.579346,2170.151611 3604.825684,2159.743408 3613.163574,2149.410889 
	C3624.204590,2135.727539 3635.251709,2122.045898 3646.525879,2108.555664 
	C3651.223145,2102.935059 3655.097656,2096.745117 3659.622070,2090.992188 
	C3677.262939,2068.560303 3695.680176,2046.757446 3713.407715,2024.394165 
	C3728.443359,2005.427124 3744.309814,1987.032471 3758.842773,1967.688965 
	C3769.818604,1953.079834 3781.346924,1938.794922 3793.240967,1925.155640 
	C3808.107910,1908.107666 3820.189941,1888.921875 3836.000244,1872.645996 
	C3845.902832,1862.452026 3854.856201,1851.119629 3862.868164,1839.365845 
	C3871.147705,1827.219727 3881.260010,1816.680298 3890.125488,1805.081543 
	C3900.605225,1791.371704 3911.389404,1777.884644 3922.353271,1764.557373 
	C3933.736084,1750.721558 3945.408203,1737.137207 3956.263916,1722.858765 
	C3966.099121,1709.922729 3976.456787,1697.377808 3986.781738,1684.823120 
	C3990.759521,1679.986084 3994.627197,1674.873657 4001.316406,1672.095459 
	C4002.000000,2004.505127 4002.000000,2337.010254 4002.000000,2670.000000 
	C3734.625000,2670.000000 3467.249756,2670.000000 3198.937256,2670.000000 
z"/>
<path fill="#D8A8AF" opacity="1.000000" stroke="none" 
	d="
M1153.540527,1517.442627 
	C1150.925171,1521.604858 1146.705933,1522.204346 1142.255005,1521.984375 
	C1136.805542,1521.715088 1131.598022,1522.254028 1127.151245,1525.853516 
	C1125.256226,1527.387451 1123.040161,1528.085449 1120.641235,1527.954590 
	C1116.138306,1527.709106 1112.074097,1528.464233 1108.796875,1531.956421 
	C1107.387207,1533.458496 1105.355225,1533.900879 1103.293335,1533.940552 
	C1102.627441,1533.953369 1101.921143,1533.837402 1101.302124,1534.017212 
	C1091.675415,1536.814087 1082.193115,1540.018799 1072.364380,1542.247803 
	C1068.097656,1543.215332 1064.264404,1546.429688 1059.346191,1546.227539 
	C1056.862549,1546.125366 1055.129639,1547.974487 1053.425903,1549.593018 
	C1048.209595,1554.547974 1042.330078,1558.019043 1034.851685,1558.082886 
	C1033.557007,1558.093872 1032.057129,1558.255615 1031.006226,1558.913574 
	C1018.782715,1566.566650 1004.563477,1569.098267 991.384399,1574.279297 
	C980.936829,1578.386841 969.825012,1580.776001 959.127502,1584.291382 
	C955.083862,1585.620361 951.402893,1588.028198 947.508606,1589.840942 
	C936.910461,1594.774292 925.056030,1595.491821 914.189331,1599.695923 
	C911.172058,1600.863159 907.934448,1601.381958 905.073181,1603.225220 
	C903.166748,1604.453613 900.804504,1605.716919 898.658569,1605.696045 
	C891.422668,1605.625122 884.723328,1606.421631 879.858215,1612.614868 
	C879.489990,1613.083496 878.677185,1613.502563 878.103149,1613.464233 
	C871.267761,1613.008179 865.395020,1616.805420 858.976624,1617.755493 
	C853.397766,1618.581177 847.470032,1617.463745 844.444824,1623.960205 
	C844.201416,1624.482910 843.350403,1625.144775 842.877747,1625.076660 
	C833.137085,1623.671387 826.243225,1632.914429 816.648193,1632.037964 
	C813.962830,1631.792725 811.205750,1632.106201 808.946838,1633.653198 
	C804.420105,1636.753662 799.644775,1638.622437 794.036804,1638.134521 
	C791.977173,1637.955444 790.211304,1639.077026 788.666626,1640.440063 
	C778.366394,1649.528198 765.434082,1652.980591 752.731506,1656.554810 
	C746.313049,1658.360962 740.455688,1661.333984 734.273560,1663.393188 
	C721.399719,1667.681274 708.650940,1672.632324 694.994812,1674.332275 
	C691.442627,1674.774414 688.013184,1676.443115 684.604126,1677.748901 
	C675.021545,1681.419678 665.745850,1686.920776 655.846802,1688.451904 
	C645.580383,1690.039917 636.568298,1695.487183 626.249146,1696.062500 
	C623.765930,1696.201050 621.859192,1697.365845 620.059021,1698.942749 
	C616.172546,1702.346802 612.169617,1704.968140 606.548157,1702.613770 
	C603.696289,1701.419189 601.550354,1703.552246 599.577942,1705.429321 
	C597.903320,1707.023193 596.032227,1709.986694 594.088745,1709.319458 
	C586.855408,1706.836304 582.168457,1710.301636 577.429688,1714.835815 
	C575.696594,1716.493896 572.999146,1715.933350 570.680481,1716.007202 
	C568.358032,1716.081299 565.569092,1715.634399 564.112671,1717.639893 
	C559.820374,1723.550903 553.858276,1724.453247 547.284668,1724.040527 
	C546.954346,1724.019897 546.525574,1723.940430 546.300659,1724.104614 
	C538.959534,1729.469849 529.450256,1728.830566 521.694336,1732.978638 
	C513.466980,1737.378906 505.157562,1741.470703 496.203827,1744.324219 
	C485.461182,1747.747803 474.665833,1750.901367 464.183655,1755.334839 
	C453.619446,1759.803345 442.334961,1762.993042 430.692108,1764.069336 
	C429.705536,1764.160522 428.324554,1764.028687 427.813202,1764.607178 
	C421.120300,1772.179810 410.784576,1771.062256 402.629913,1775.224243 
	C396.801117,1778.199341 390.610779,1780.930054 383.563202,1780.093018 
	C379.764526,1779.641846 376.224213,1781.239624 373.513947,1783.798462 
	C369.804718,1787.300781 365.874786,1788.928833 360.827942,1787.350708 
	C359.620331,1786.972900 357.545074,1786.513794 357.067780,1787.088257 
	C350.731201,1794.713745 340.817627,1794.130371 332.703827,1796.993286 
	C322.527527,1800.583984 312.926636,1805.605469 302.453308,1808.738281 
	C294.355865,1811.160522 287.184784,1814.971436 278.342163,1813.231567 
	C276.662018,1812.900879 274.414825,1815.388184 272.446960,1816.604248 
	C271.056396,1817.463623 269.395721,1819.394653 268.370331,1819.093750 
	C261.187073,1816.985107 257.324371,1822.273315 252.610931,1825.664429 
	C243.559738,1832.175903 232.566010,1833.868164 222.508224,1837.880859 
	C207.199600,1843.988281 190.165665,1845.099243 175.822617,1854.010254 
	C174.982040,1854.532349 173.994568,1855.229126 173.101959,1855.192871 
	C163.811996,1854.815308 155.987991,1859.937012 147.338974,1861.844727 
	C144.032166,1862.574097 140.948303,1863.528076 137.965897,1865.017334 
	C130.839096,1868.576294 123.830490,1872.432495 115.297043,1870.478516 
	C113.900848,1870.158813 111.922569,1870.937256 110.640968,1871.825195 
	C106.403107,1874.761475 101.970078,1876.588013 96.684555,1876.098877 
	C93.828819,1875.834473 91.660484,1877.455078 89.655136,1879.341431 
	C88.209320,1880.701538 86.658386,1882.859741 85.037865,1882.971436 
	C76.724670,1883.544067 69.319221,1886.419312 61.667988,1889.530029 
	C57.258926,1891.322388 52.475159,1892.468506 47.889500,1894.441895 
	C40.348038,1897.687622 32.293819,1900.807251 24.243092,1901.496826 
	C16.580292,1902.153076 10.255172,1905.296875 2.734309,1907.896484 
	C2.000000,1825.291504 2.000000,1742.583130 2.000000,1658.937256 
	C5.732791,1653.922729 11.127537,1654.218140 15.849946,1652.964600 
	C38.147625,1647.045532 59.368786,1638.213501 80.587318,1629.379883 
	C91.064735,1625.017822 102.096466,1622.386108 112.800522,1618.729736 
	C158.482941,1603.124268 204.340012,1588.004639 250.279953,1573.194092 
	C259.965607,1570.071655 269.582520,1564.188477 280.669128,1565.744873 
	C281.964722,1565.926880 283.199188,1565.050781 284.373840,1564.406494 
	C318.214600,1545.840576 355.459259,1536.359009 391.786896,1524.535522 
	C423.135925,1514.332520 454.013672,1502.852051 485.086609,1491.895752 
	C518.078796,1480.262939 551.739380,1470.552979 584.504028,1458.304932 
	C607.878540,1449.567261 631.778687,1442.405640 655.181396,1433.709595 
	C670.290161,1428.095703 685.848877,1423.008301 701.457825,1418.476074 
	C716.460327,1414.120117 731.243469,1409.178345 745.709351,1403.193970 
	C755.546326,1399.124512 765.481079,1396.261719 776.733398,1399.570068 
	C784.215881,1401.769897 792.572205,1400.921387 801.267944,1400.414551 
	C828.784790,1406.776245 854.585693,1416.643799 880.743408,1425.364868 
	C969.380554,1454.917114 1057.928711,1484.736084 1146.505859,1514.468384 
	C1148.706909,1515.207153 1150.848755,1516.121704 1153.540527,1517.442627 
z"/>
<path fill="#E1C0C5" opacity="1.000000" stroke="none" 
	d="
M4002.000000,507.062683 
	C3987.039062,513.552368 3971.652344,517.801514 3956.604248,523.158936 
	C3931.549316,532.078735 3906.481201,540.961670 3881.956543,551.206482 
	C3849.728027,564.669617 3817.644287,578.574219 3786.684814,594.781738 
	C3757.230713,610.201172 3728.017334,626.071777 3699.340820,642.963562 
	C3662.069336,664.918213 3625.482666,687.914062 3589.744629,712.243042 
	C3562.009766,731.123779 3534.969482,750.997986 3507.905762,770.841553 
	C3486.745117,786.356750 3466.039795,802.443481 3445.320801,818.514038 
	C3429.330566,830.916687 3413.887695,844.024658 3398.174805,856.786499 
	C3394.566650,859.716919 3390.850098,862.514343 3386.591797,865.685303 
	C3383.600342,861.198730 3379.573486,859.738586 3374.441650,859.969177 
	C3358.539795,860.683716 3342.668457,859.724243 3326.684326,861.567017 
	C3311.243164,863.347229 3295.365967,861.012634 3279.809570,862.191040 
	C3240.942383,865.135315 3202.007812,862.541321 3163.198486,864.431030 
	C3145.943848,865.271240 3128.681641,865.040527 3111.476074,866.113403 
	C3074.073730,868.445618 3036.610596,866.967529 2999.233887,868.375671 
	C2977.994629,869.175903 2956.660400,868.512756 2935.553467,870.306641 
	C2898.983643,873.414795 2862.388184,870.159485 2825.918945,872.301941 
	C2802.663330,873.668091 2779.413330,873.017517 2756.238037,874.370972 
	C2745.664307,874.988403 2735.094727,875.843811 2724.481934,876.036560 
	C2720.363281,876.111389 2716.505859,875.732788 2712.674316,872.376221 
	C2716.000732,868.719360 2721.087402,868.021118 2725.752930,866.452454 
	C2773.049316,850.550476 2819.552979,832.607483 2865.605713,813.400879 
	C2904.890625,797.016907 2943.830078,779.916199 2982.429688,761.970642 
	C3021.366455,743.868347 3060.064453,725.298035 3098.299805,705.778259 
	C3128.202148,690.512817 3158.054932,675.124817 3187.546387,659.086426 
	C3227.845703,637.170288 3268.110840,615.182495 3307.822998,592.196655 
	C3349.536621,568.052429 3391.572754,544.464905 3433.237549,520.237671 
	C3472.312256,497.516602 3510.882080,473.923004 3550.060547,451.385345 
	C3578.298828,435.141022 3605.862305,417.723022 3635.344238,402.251465 
	C3660.362061,398.174347 3685.043701,401.495728 3709.471191,398.886505 
	C3714.451172,398.354553 3719.451904,397.537689 3724.393555,398.312592 
	C3750.547852,402.413666 3777.332031,402.529572 3802.936523,399.127777 
	C3859.719482,391.583649 3916.495605,395.324097 3973.256348,394.047699 
	C3982.328369,393.843689 3991.624023,389.061462 4001.279297,395.385864 
	C4002.000000,432.708466 4002.000000,469.416901 4002.000000,507.062683 
z"/>
<path fill="#DDB0B7" opacity="1.000000" stroke="none" 
	d="
M2751.254150,2304.105957 
	C2750.952148,2310.589844 2746.774170,2315.516113 2742.633545,2320.190674 
	C2733.617676,2330.368896 2725.269531,2340.887451 2718.210693,2352.621582 
	C2714.575928,2358.663574 2708.490234,2363.329834 2703.843750,2368.951416 
	C2701.088135,2372.285400 2698.479980,2375.699951 2695.839844,2379.115967 
	C2688.829834,2388.186035 2683.065674,2398.265381 2673.943359,2405.655273 
	C2671.705078,2407.468262 2670.204590,2410.324219 2668.711182,2412.901367 
	C2663.347900,2422.155762 2656.747314,2430.311279 2648.462646,2437.138916 
	C2646.725342,2438.570557 2645.424561,2440.679443 2644.311279,2442.691162 
	C2641.765381,2447.291260 2638.374756,2450.562256 2634.125977,2453.973145 
	C2627.910889,2458.962891 2624.289307,2467.082520 2619.151855,2473.541748 
	C2613.499023,2480.649658 2609.125977,2488.758545 2601.763672,2494.582031 
	C2598.471680,2497.186279 2595.999756,2501.029053 2593.709473,2504.659424 
	C2587.671631,2514.229248 2580.453369,2522.797852 2572.326416,2530.594238 
	C2567.719238,2535.013672 2563.942139,2540.007568 2560.378662,2545.255371 
	C2553.676270,2555.125977 2546.874268,2564.932617 2538.551270,2573.566895 
	C2537.405518,2574.755371 2536.262939,2576.104492 2535.619385,2577.594971 
	C2530.084961,2590.416260 2519.529297,2599.138428 2510.110840,2608.734375 
	C2506.572998,2612.338623 2503.480713,2616.271240 2500.771484,2620.377930 
	C2491.804932,2633.968750 2478.508301,2644.227539 2471.261230,2659.118652 
	C2469.526123,2662.683594 2465.198486,2664.436523 2464.097168,2669.310059 
	C2145.958252,2670.000000 1827.916382,2670.000000 1508.937256,2670.000000 
	C1508.250122,2666.251465 1510.775391,2664.220947 1513.569702,2662.210693 
	C1553.000732,2633.844482 1593.395508,2606.921143 1635.381226,2582.496094 
	C1667.313477,2563.919434 1699.707642,2546.078857 1733.233276,2530.527344 
	C1768.531738,2514.153564 1804.499146,2499.345215 1841.251465,2486.410400 
	C1884.269165,2471.270996 1928.118774,2459.076904 1972.524658,2449.038574 
	C2008.748413,2440.849609 2045.110718,2433.135010 2081.929688,2427.824463 
	C2106.191650,2424.324951 2130.284424,2419.583252 2154.591797,2416.484619 
	C2177.915283,2413.511475 2201.163330,2409.935303 2224.602295,2407.690918 
	C2236.739502,2406.528564 2248.838379,2403.853516 2261.021729,2402.869141 
	C2274.594971,2401.772217 2287.824463,2398.604980 2301.460938,2397.720947 
	C2318.617676,2396.609131 2335.658691,2393.649902 2352.735107,2391.377930 
	C2365.534912,2389.674805 2378.321533,2387.862305 2391.096924,2385.984131 
	C2411.091064,2383.044434 2431.211426,2381.098389 2451.120117,2377.418701 
	C2470.979736,2373.748047 2491.056152,2371.265137 2510.972168,2367.876709 
	C2524.373779,2365.596680 2537.679443,2362.734619 2550.996826,2359.981445 
	C2578.630615,2354.268311 2606.186523,2348.194092 2633.510742,2341.132568 
	C2672.512207,2331.052490 2710.741455,2318.507080 2748.591064,2304.770264 
	C2749.215332,2304.543701 2749.868652,2304.395996 2751.254150,2304.105957 
z"/>
<path fill="#DAA0A9" opacity="1.000000" stroke="none" 
	d="
M801.319702,1399.743652 
	C801.159180,1404.100708 798.006409,1404.196777 794.980530,1403.943604 
	C786.201843,1403.208984 776.964233,1406.351807 768.701904,1400.810913 
	C767.803833,1400.208862 765.966858,1400.326660 764.871643,1400.807617 
	C757.029663,1404.252197 747.613403,1403.544312 740.875488,1409.903564 
	C740.172180,1410.567261 739.183899,1411.353882 738.321838,1411.360962 
	C725.611694,1411.465332 715.520935,1420.274658 703.246887,1421.845215 
	C700.308838,1422.221069 697.442444,1423.262207 694.583069,1424.129272 
	C683.741394,1427.416382 674.126892,1434.127930 662.145935,1434.514771 
	C657.086792,1434.678223 651.983337,1437.383789 647.703979,1440.863281 
	C645.377075,1442.755371 642.425598,1443.485474 639.439331,1444.146118 
	C624.801819,1447.384766 610.782532,1452.390625 596.965393,1458.264526 
	C587.525391,1462.277832 577.341858,1464.506958 567.607971,1467.872803 
	C555.392212,1472.096680 543.506104,1477.430054 531.082397,1480.847412 
	C521.145325,1483.580811 511.438873,1486.997437 501.500641,1489.637207 
	C498.260681,1490.497803 495.208923,1491.668701 492.097168,1492.831909 
	C477.832794,1498.164185 463.452484,1503.187988 449.207764,1508.571167 
	C420.422760,1519.449219 391.180267,1529.025635 361.656128,1537.562378 
	C341.540924,1543.378418 322.960724,1553.272217 302.585602,1558.224854 
	C296.411987,1559.725464 290.790527,1563.073975 286.474731,1567.822998 
	C283.851624,1570.709717 281.929932,1572.187012 278.196442,1569.575073 
	C274.256531,1566.818726 270.623962,1567.794067 268.034332,1571.955078 
	C266.746704,1574.024048 265.093689,1576.158203 262.544098,1575.520386 
	C249.731033,1572.314575 240.000229,1581.392090 228.673325,1584.056274 
	C214.901337,1587.295654 201.774506,1593.193970 188.229279,1597.504150 
	C174.036346,1602.020630 159.517822,1605.510132 145.955627,1611.919922 
	C142.695435,1613.460693 139.050507,1614.243286 135.527069,1615.161865 
	C119.161308,1619.427734 103.237556,1625.278809 87.292580,1630.680420 
	C73.332626,1635.409424 59.602463,1641.498535 45.776340,1646.975952 
	C32.261433,1652.329834 18.585888,1657.545410 2.865187,1657.998779 
	C2.000000,1518.624878 2.000000,1379.249756 2.000000,1238.937256 
	C17.554207,1238.993774 33.141853,1239.514526 48.621773,1241.542847 
	C51.909031,1241.973755 55.268959,1241.951294 58.595901,1241.960571 
	C71.907677,1241.997559 85.022789,1244.124268 98.221428,1245.422485 
	C108.121468,1246.396484 118.084389,1246.573975 127.990440,1247.881836 
	C143.757751,1249.964111 159.629028,1251.143799 175.415421,1253.218994 
	C187.573883,1254.817383 199.752930,1256.344360 211.928619,1257.855591 
	C232.008835,1260.347778 252.055420,1263.000366 272.011078,1266.365234 
	C291.939697,1269.725342 311.945923,1272.640137 331.837280,1276.201660 
	C349.789246,1279.415894 367.628387,1283.258423 385.523468,1286.792725 
	C442.516693,1298.048462 498.963440,1311.701416 555.158936,1326.329346 
	C589.225098,1335.196899 622.981018,1345.262207 656.796570,1355.088257 
	C703.724426,1368.724121 750.208313,1383.754272 796.939453,1397.999634 
	C798.206787,1398.386108 799.424805,1398.934448 801.319702,1399.743652 
z"/>
<path fill="#E0B8BF" opacity="1.000000" stroke="none" 
	d="
M695.553467,569.452881 
	C694.800964,574.911682 691.315186,575.739746 686.849060,575.333191 
	C663.967346,573.249695 641.080078,572.921387 618.212158,575.549866 
	C616.181213,575.783386 614.264954,575.695679 612.305969,575.124084 
	C605.107483,573.023926 597.520325,573.112183 590.493835,574.387512 
	C580.177856,576.259888 569.942688,575.744385 559.659912,575.986694 
	C554.687744,576.103882 550.107910,576.998474 545.223083,578.627319 
	C536.730835,581.459167 527.486938,581.023804 518.700378,578.464111 
	C506.222931,574.829285 493.780945,574.594055 481.399445,578.534485 
	C475.806854,580.314331 470.248291,580.622620 464.687897,579.148621 
	C459.714172,577.830261 454.836273,577.471497 449.938141,579.050293 
	C446.349518,580.207031 442.689789,579.987793 439.037048,579.991211 
	C415.704681,580.013000 392.372162,580.048340 369.039978,579.984863 
	C355.494690,579.947998 341.928192,580.059692 328.410645,580.312683 
	C313.168518,580.597900 297.848602,581.347412 282.660431,582.515503 
	C273.962189,583.184509 265.408936,586.937012 256.295166,586.005432 
	C253.983948,585.769226 251.492172,586.082275 249.379257,585.321350 
	C236.072021,580.528687 222.621216,581.049561 209.050232,583.722778 
	C208.076904,583.914490 207.060791,583.976074 206.066544,583.961731 
	C179.113220,583.573364 152.282623,587.034668 125.284019,586.130676 
	C101.093079,585.320618 76.807426,585.060120 52.674343,586.377930 
	C36.396885,587.266724 20.156927,587.892334 2.937139,588.001099 
	C2.000000,493.958221 2.000000,399.916412 2.000000,304.937317 
	C10.142267,303.774200 17.425667,307.342438 24.963011,309.528717 
	C37.002346,313.020844 48.796597,317.357880 61.380798,321.599426 
	C78.331200,325.511383 93.856453,331.543976 109.520279,337.031982 
	C118.617340,340.219238 127.719849,343.407623 136.850174,346.505554 
	C181.881592,361.784821 226.560471,378.042114 270.869965,395.291656 
	C322.881042,415.539520 374.910980,435.750977 426.676025,456.615082 
	C468.263306,473.376984 509.449524,491.132507 550.848694,508.362885 
	C579.673401,520.359741 608.599915,532.112488 637.400024,544.167480 
	C656.703308,552.247375 675.864807,560.665894 695.553467,569.452881 
z"/>
<path fill="#E0B8BF" opacity="1.000000" stroke="none" 
	d="
M4002.000000,395.062683 
	C3953.468262,399.685730 3904.842529,396.963257 3856.288086,398.306183 
	C3844.404785,398.634857 3831.818848,397.635651 3820.655273,400.616486 
	C3799.118896,406.367004 3777.634277,402.543091 3756.207275,403.991150 
	C3751.250977,404.326111 3746.197998,403.364227 3741.358643,405.212494 
	C3738.612061,406.261566 3736.111816,405.047729 3733.623047,404.169739 
	C3725.524414,401.312500 3717.376709,401.288879 3709.063965,403.218353 
	C3706.187256,403.886169 3703.129395,403.955231 3700.152100,403.975952 
	C3688.490723,404.057007 3676.828369,403.960510 3665.166748,404.028778 
	C3658.535400,404.067596 3651.913086,403.616241 3645.342285,405.577118 
	C3642.400146,406.455048 3638.639404,407.189514 3636.189941,402.702576 
	C3653.114502,390.491608 3671.316406,380.807373 3689.131592,370.485657 
	C3713.574951,356.323578 3738.223877,342.512848 3762.864014,328.693146 
	C3777.654297,320.397827 3792.476318,312.144135 3807.494629,304.273163 
	C3838.145996,288.208496 3868.747314,272.039520 3899.361816,255.913498 
	C3932.655762,238.376190 3966.512451,222.099503 4001.280273,206.078232 
	C4002.000000,268.708466 4002.000000,331.416901 4002.000000,395.062683 
z"/>
<path fill="#E0B8BF" opacity="1.000000" stroke="none" 
	d="
M1883.170654,1674.059814 
	C1879.577393,1680.887085 1878.293823,1681.025024 1872.125366,1674.704712 
	C1875.423340,1674.045654 1878.866699,1674.037109 1883.170654,1674.059814 
z"/>
<path fill="#E0B8BF" opacity="1.000000" stroke="none" 
	d="
M2445.345215,1572.081055 
	C2445.250488,1576.009766 2443.752930,1578.921753 2438.425781,1576.411987 
	C2439.724854,1573.797119 2442.110107,1572.803711 2445.345215,1572.081055 
z"/>
<path fill="#E0B8BF" opacity="1.000000" stroke="none" 
	d="
M2189.359375,1652.048462 
	C2189.835449,1653.959595 2190.213135,1656.177856 2188.048096,1657.196777 
	C2186.160156,1658.085205 2185.017090,1656.929810 2184.140625,1654.604736 
	C2185.180908,1652.370361 2186.869385,1652.039185 2189.359375,1652.048462 
z"/>
<path fill="#E0B8BF" opacity="1.000000" stroke="none" 
	d="
M2081.296875,1668.041382 
	C2081.124512,1672.687622 2078.330322,1672.074341 2074.587402,1670.248535 
	C2075.739502,1667.846069 2078.181885,1668.024536 2081.296875,1668.041382 
z"/>
<path fill="#E0B8BF" opacity="1.000000" stroke="none" 
	d="
M2459.365723,1566.067871 
	C2459.674072,1568.770264 2458.014648,1569.962280 2454.624023,1569.924194 
	C2454.974365,1567.956055 2456.433838,1566.514526 2459.365723,1566.067871 
z"/>
<path fill="#E0B8BF" opacity="1.000000" stroke="none" 
	d="
M2167.353516,1656.048340 
	C2167.591309,1659.362671 2165.823730,1659.912598 2162.528320,1658.210449 
	C2163.161377,1656.387451 2164.851562,1656.038574 2167.353516,1656.048340 
z"/>
<path fill="#E0B8BF" opacity="1.000000" stroke="none" 
	d="
M2061.354248,1670.050293 
	C2061.585449,1673.378174 2059.807129,1673.908447 2056.515381,1672.195190 
	C2057.161621,1670.383667 2058.853027,1670.038086 2061.354248,1670.050293 
z"/>
<path fill="#E0B8BF" opacity="1.000000" stroke="none" 
	d="
M2527.396729,1534.034058 
	C2527.589111,1535.708862 2527.570557,1537.882080 2524.354980,1536.353516 
	C2524.932861,1535.333618 2525.875732,1534.719360 2527.396729,1534.034058 
z"/>
<path fill="#E0B8BF" opacity="1.000000" stroke="none" 
	d="
M2511.392334,1542.028076 
	C2511.589844,1543.704224 2511.577393,1545.878540 2508.355957,1544.354980 
	C2508.931641,1543.333496 2509.873291,1542.717163 2511.392334,1542.028076 
z"/>
<path fill="#E0B8BF" opacity="1.000000" stroke="none" 
	d="
M1997.348999,1674.044678 
	C1997.776123,1675.282471 1997.611450,1676.665405 1996.083374,1676.867065 
	C1995.009888,1677.008667 1994.505371,1676.098389 1994.086914,1674.617920 
	C1994.875000,1674.054077 1995.774658,1674.039673 1997.348999,1674.044678 
z"/>
<path fill="#E0B8BF" opacity="1.000000" stroke="none" 
	d="
M714.033203,2122.990723 
	C711.944275,2120.991943 712.075562,2119.385986 714.516541,2118.636719 
	C715.151672,2118.441895 716.598206,2119.060547 716.800049,2119.619873 
	C717.462463,2121.456543 716.236084,2122.478271 714.033203,2122.990723 
z"/>
<path fill="#E0B8BF" opacity="1.000000" stroke="none" 
	d="
M1513.912720,1849.026855 
	C1512.653076,1848.129883 1512.731934,1847.100952 1513.944946,1847.121338 
	C1515.158447,1847.141602 1515.198730,1848.172852 1513.912720,1849.026855 
z"/>
</svg>